<?xml version="1.0" standalone="no"?>
<!DOCTYPE svg PUBLIC "-//W3C//DTD SVG 1.1//EN" "http://www.w3.org/Graphics/SVG/1.1/DTD/svg11.dtd" >
<svg xmlns="http://www.w3.org/2000/svg" xmlns:xlink="http://www.w3.org/1999/xlink" version="1.1">
<metadata></metadata>
<defs>
<font id="woodford_bourneregular" horiz-adv-x="1447" >
<font-face units-per-em="2048" ascent="1638" descent="-410" />
<missing-glyph horiz-adv-x="399" />
<glyph unicode="&#xfb01;" horiz-adv-x="991" d="M66 758v78q0 12 8 21t20 9h101v213v2q1 91 20.5 158t50.5 107t79.5 64t98.5 32t117 8q144 0 244 -61q27 -16 14 -43l-47 -68q-14 -24 -39 -10q-29 18 -76 30.5t-86 12.5q-124 0 -164 -51.5t-40 -188.5v-205h460q12 0 21.5 -9t9.5 -21v-78v-729q0 -12 -9 -20.5t-22 -8.5 h-110q-12 0 -21.5 8.5t-9.5 20.5v698h-319v-696q0 -31 -31 -31h-111q-13 0 -21.5 8.5t-8.5 22.5v696h-101q-12 0 -20 9.5t-8 21.5z" />
<glyph unicode="&#xfb02;" horiz-adv-x="1081" d="M66 758v78q0 12 8 21t20 9h101v213v2q1 71 13 127.5t30.5 94.5t47.5 66t57 43t66 24t68.5 11.5t69.5 2.5q76 0 137 -23q33 -10 54.5 -9.5t39.5 14.5q6 18 25 18h112q12 0 21.5 -10t9.5 -23v-1386q0 -13 -9.5 -22t-21.5 -9h-112q-12 0 -20.5 9t-8.5 22v1159 q-21 43 -100 86v2q-64 33 -121 33q-102 0 -144 -54.5t-42 -185.5v-205h184q12 0 21.5 -9t9.5 -21v-78q0 -12 -9.5 -21.5t-21.5 -9.5h-184v-696q0 -31 -31 -31h-111q-13 0 -21.5 8.5t-8.5 22.5v696h-101q-12 0 -20 9.5t-8 21.5z" />
<glyph horiz-adv-x="0" />
<glyph horiz-adv-x="682" />
<glyph unicode=" "  horiz-adv-x="399" />
<glyph unicode="&#x09;" horiz-adv-x="399" />
<glyph unicode="&#xa0;" horiz-adv-x="399" />
<glyph unicode="!" horiz-adv-x="423" d="M117 1419q0 31 28 31h131q31 0 31 -31l-39 -1073q0 -31 -32 -31h-48q-32 0 -32 31zM119 14v133q0 31 33 31h120q33 0 33 -31v-133q0 -30 -33 -30h-120q-33 0 -33 30z" />
<glyph unicode="&#x22;" horiz-adv-x="649" d="M61 1464q-3 31 27 31h170q30 0 27 -31l-62 -508q-3 -30 -33 -30h-34q-30 0 -33 30zM365 1464q-3 31 26 31h170q30 0 27 -31l-60 -508q-3 -30 -32 -30h-37q-30 0 -33 30z" />
<glyph unicode="#" horiz-adv-x="1245" d="M117 457v78q0 30 33 30h120l72 398h-98q-33 0 -33 30v78q0 31 33 31h123l57 317q6 31 41 31h90q30 0 23 -37l-56 -311h328l55 317q6 31 41 31h92q30 0 23 -37l-55 -311h90q14 0 23 -8t9 -23v-78q0 -30 -32 -30h-115l-72 -398h90q13 0 23 -8t10 -22v-78q0 -14 -10 -22.5 t-23 -8.5h-116l-70 -395q-3 -14 -15 -22.5t-28 -8.5h-78q-20 0 -27 13.5t-3 31.5l67 381h-330l-69 -395q-3 -14 -15 -22.5t-28 -8.5h-78q-20 0 -27 14t-4 31l68 381h-96q-33 0 -33 31zM426 565h328l71 398h-327z" />
<glyph unicode="$" horiz-adv-x="1282" d="M117 178q-16 16 0 41l59 74q19 25 45 8q1 -1 21.5 -18.5t46 -35.5t62.5 -40t88.5 -39t107.5 -25v523q-211 59 -316.5 149.5t-105.5 241.5q0 49 13 97.5t45 98t79 89t120.5 68t164.5 36.5v108q0 15 9.5 25t21.5 10h110q13 0 22 -10t9 -25v-108q219 -18 375 -141 q21 -15 2 -45l-60 -80q-5 -9 -16 -11t-23 7q-127 95 -278 114v-497q46 -11 83 -22t84.5 -29.5t83.5 -39t72.5 -52t60.5 -67.5t39 -84.5t15 -105.5q0 -50 -14 -99.5t-47.5 -101t-82 -92.5t-125 -71.5t-169.5 -40.5v-115q0 -12 -9 -20.5t-22 -8.5h-110q-12 0 -21.5 8.5 t-9.5 20.5v115q-258 18 -430 190zM305 1067q0 -81 60.5 -133.5t181.5 -93.5v450q-110 -19 -176 -79t-66 -144zM719 147q47 10 88.5 27t82 45t64 73t23.5 101q0 49 -19.5 86t-58 63t-79.5 42.5t-101 33.5v-471z" />
<glyph unicode="%" horiz-adv-x="1906" d="M82 983q0 467 311 467q309 0 309 -467t-309 -467q-311 0 -311 467zM227 985q0 -336 166 -336q164 0 164 336q0 159 -37.5 245.5t-126.5 86.5q-166 0 -166 -332zM530 45l695 1358q15 31 41 31h84q15 0 22 -11t0 -26l-698 -1366q-16 -31 -43 -31h-70q-21 0 -30 14.5 t-1 30.5zM1204 498q0 467 312 467q309 0 309 -467t-309 -467q-312 0 -312 467zM1350 500q0 -336 166 -336q46 0 78 24t50.5 70.5t26.5 105.5t8 136q0 159 -37 245t-126 86q-166 0 -166 -331z" />
<glyph unicode="&#x26;" horiz-adv-x="1312" d="M78 381q0 124 63.5 219t206.5 201q-139 197 -139 323q0 145 91 235.5t216 90.5q126 0 212.5 -90t86.5 -232q0 -189 -256 -360q134 -160 313 -324q84 103 222 215q22 17 43 -4l59 -71q17 -23 -4 -41q-91 -68 -203 -205q126 -111 256 -217q10 -11 9.5 -22.5t-7.5 -18.5 l-63 -68q-24 -24 -45 -4q-167 140 -246 211q-176 -235 -401 -235q-112 0 -204.5 45t-151 137t-58.5 215zM252 381q0 -111 72 -180.5t170 -69.5q73 0 142 49.5t144 143.5q-223 212 -346 366q-182 -128 -182 -309zM379 1128q-3 -99 94 -245q174 111 174 245q0 73 -36.5 127 t-94.5 54q-63 0 -100 -52.5t-37 -128.5z" />
<glyph unicode="'" horiz-adv-x="346" d="M61 1464q-3 31 27 31h170q30 0 27 -31l-62 -508q-3 -30 -33 -30h-34q-30 0 -33 30z" />
<glyph unicode="(" horiz-adv-x="651" d="M117 711q0 259 76.5 499t201.5 394q21 24 49 10l70 -39q14 -6 18.5 -17.5t-2.5 -25.5q-125 -171 -180.5 -392.5t-50.5 -430.5q-1 -135 17.5 -267t74 -287.5t144.5 -285.5q5 -9 0 -21t-15 -16l-74 -45q-23 -11 -40 6q-132 176 -210.5 418t-78.5 500z" />
<glyph unicode=")" horiz-adv-x="651" d="M118.5 -152q-4.5 12 0.5 21q88 130 143 285.5t74 287.5t18 267q5 209 -50.5 430.5t-182.5 392.5q-7 14 -2.5 25.5t18.5 17.5l72 39q28 14 49 -10q125 -155 202 -395t77 -498q0 -257 -79 -499t-210 -419q-18 -18 -41 -6l-74 45q-10 4 -14.5 16z" />
<glyph unicode="*" horiz-adv-x="739" d="M63 1221l23 73q3 10 13.5 16t21.5 3l184 -96l2 2l-35 202q-1 13 7.5 21t21.5 8h76q12 0 21 -7t8 -20l-33 -204v-2l182 94q12 4 23 -2t14 -17l22 -71q8 -30 -16 -35l-205 -33v-2l150 -143q15 -24 -8 -39l-64 -45q-9 -6 -21 -4t-18 12l-92 182l-90 -184q-6 -10 -18 -12 t-21 4l-64 45q-10 6 -12.5 17t4.5 22l146 147l-205 33q-25 6 -17 35z" />
<glyph unicode="+" horiz-adv-x="1060" d="M117 664v75q0 31 33 31h301v309q0 33 30 33h99q30 0 30 -33v-309h301q33 0 33 -31v-75q0 -31 -33 -31h-301v-311q0 -33 -30 -33h-99q-30 0 -30 33v311h-301q-33 0 -33 31z" />
<glyph unicode="," horiz-adv-x="397" d="M82 31v135q0 31 33 31h133q33 0 33 -31v-135q0 -9 -2 -13l-97 -239h-49q-10 0 -17.5 9t-2.5 24l71 188h-69q-33 0 -33 31z" />
<glyph unicode="-" horiz-adv-x="782" d="M117 524v78q0 31 33 31h485q33 0 33 -31v-78q0 -30 -33 -30h-485q-33 0 -33 30z" />
<glyph unicode="." horiz-adv-x="395" d="M78 31v135q0 31 33 31h135q33 0 33 -31v-135q0 -31 -33 -31h-135q-33 0 -33 31z" />
<glyph unicode="/" horiz-adv-x="866" d="M63 45l574 1358q12 31 41 31h98q15 0 22 -11t1 -26l-578 -1366q-12 -31 -43 -31h-84q-21 0 -29 14.5t-2 30.5z" />
<glyph unicode="0" horiz-adv-x="1204" d="M117 717q0 733 487 733q483 0 483 -733t-483 -733q-487 0 -487 733zM295 719q0 -292 76 -438t233 -146q305 0 305 584q0 579 -305 579q-157 0 -233 -144.5t-76 -434.5z" />
<glyph unicode="1" horiz-adv-x="1011" d="M117 29v88q0 12 9 21t21 9h285v1088l-233 -170q-17 -11 -33 -3.5t-16 23.5v97q0 22 28 39l273 204q13 9 32 9h101q12 0 20 -9.5t8 -21.5v-1256h287q12 0 21.5 -9t9.5 -21v-88q0 -12 -9.5 -20.5t-21.5 -8.5h-436h-316q-12 0 -21 8.5t-9 20.5z" />
<glyph unicode="2" horiz-adv-x="1191" d="M117 1083q9 54 27.5 103t55.5 98.5t88.5 85t130 58t175.5 22.5h2q113 0 199 -32.5t136 -90.5t74.5 -129.5t24.5 -155.5q0 -48 -13.5 -96t-32 -82t-37.5 -61.5t-33 -40.5l-13 -14l-526 -596h669q12 0 21.5 -9.5t9.5 -21.5v-92q0 -12 -9.5 -20.5t-21.5 -8.5h-894 q-12 0 -21.5 8.5t-9.5 20.5v69q0 11 10 21h-2l547 629q82 85 129 157.5t47 136.5q0 125 -71 190.5t-185 65.5q-79 0 -139 -22.5t-92 -59t-48.5 -71t-21.5 -70.5q-3 -11 -12 -17.5t-17 -6.5h-117q-14 0 -22.5 9.5t-7.5 22.5z" />
<glyph unicode="3" horiz-adv-x="1191" d="M117 344q0 35 30 35h117q10 0 19.5 -6.5t9.5 -18.5q0 -104 80.5 -161.5t220.5 -57.5q143 0 223 69.5t80 198.5q0 63 -18.5 109t-48.5 74t-77.5 44.5t-97.5 22.5t-116 6h-84q-12 0 -21.5 8.5t-9.5 20.5v94q0 12 9.5 20.5t21.5 8.5h84q76 0 132 11.5t101 39t68.5 78.5 t23.5 125q0 233 -270 233q-137 0 -219 -60t-82 -159q0 -12 -9.5 -18t-19.5 -6h-117q-30 0 -30 35q0 69 28.5 131.5t84 114.5t150 83t214.5 31h2q103 0 183.5 -23.5t129 -60.5t79.5 -88.5t42.5 -102t11.5 -106.5q0 -72 -17 -131t-45.5 -97t-55 -61.5t-56.5 -38.5 q27 -11 51 -25.5t54 -42.5t51.5 -62.5t36 -89t14.5 -118.5q0 -63 -13.5 -119.5t-48 -112.5t-87.5 -96.5t-137.5 -65.5t-192.5 -25h-2q-120 0 -214.5 31.5t-150 84t-84 114.5t-28.5 130z" />
<glyph unicode="4" horiz-adv-x="1269" d="M117 332v86q0 8 4 16l637 983q3 6 13 11.5t20 5.5h178q12 0 20 -9.5t8 -21.5v-948h125q12 0 21.5 -8.5t9.5 -20.5v-94q0 -12 -9.5 -20.5t-21.5 -8.5h-125v-272q0 -12 -8 -21.5t-20 -9.5h-121q-12 0 -21.5 9.5t-9.5 21.5v272h-670q-12 0 -21 8.5t-9 20.5zM315 455h502v776 z" />
<glyph unicode="5" horiz-adv-x="1191" d="M117 344q0 35 30 35h101q10 0 18 -8t10 -17q4 -30 26.5 -66.5t59.5 -72t95 -59.5t123 -25q149 1 233 89t84 241q0 84 -26.5 148.5t-70.5 102t-102.5 54.5t-121.5 11t-129.5 -33.5t-124.5 -75.5q-7 -4 -17 -5.5t-16 -0.5h-6l-129 26q-26 7 -23 31l109 686q2 12 10 20.5 t20 8.5h688q12 0 21.5 -8.5t9.5 -20.5v-94q0 -12 -9.5 -20.5t-21.5 -8.5h-575l-74 -453q72 47 157 70.5t170 22t164.5 -32t140.5 -84.5t97.5 -142t36.5 -198q0 -73 -14.5 -139t-50.5 -129.5t-91 -110t-141.5 -74.5t-195.5 -28h-2q-106 0 -196 34.5t-147 88t-88.5 116 t-31.5 121.5z" />
<glyph unicode="6" horiz-adv-x="1191" d="M117 666q0 204 37.5 357.5t105.5 245t155 136.5t193 45q81 0 152 -23t119.5 -59.5t84.5 -83.5t55 -94.5t23 -93.5q1 -8 1 -15.5t-5.5 -12.5t-17.5 -5h-123q-26 0 -33 24q-69 211 -262 211q-133 0 -221.5 -145.5t-95.5 -398.5q53 84 138 136t202 52q187 0 318.5 -135.5 t131.5 -333.5q0 -208 -133 -348.5t-332 -140.5q-289 0 -405 237q-88 185 -88 445zM319 481q0 -53 8.5 -100.5t30.5 -93.5t55.5 -79t87.5 -53t124 -20q121 0 197.5 93t76.5 235q0 152 -84 243t-194 91q-128 0 -215 -86.5t-87 -229.5z" />
<glyph unicode="7" horiz-adv-x="1132" d="M117 1311v90q0 14 8 23.5t20 9.5h899q5 0 9 -2q12 -3 18 -16.5t0 -26.5l-622 -1360q-7 -12 -22.5 -20.5t-27.5 -8.5h-108q-17 0 -26 14.5t-1 28.5l567 1239h-686q-12 0 -20 8.5t-8 20.5z" />
<glyph unicode="8" horiz-adv-x="1191" d="M117 381q0 116 71 212.5t181 145.5q-97 49 -157 140.5t-60 203.5q0 158 119 262.5t323 104.5q208 0 325 -104t117 -265q0 -112 -55.5 -203.5t-151.5 -138.5q109 -52 177.5 -148t68.5 -212q0 -163 -132 -279t-347 -116q-211 0 -345 116.5t-134 280.5zM295 383 q0 -119 87 -183.5t216 -64.5q130 0 213.5 65.5t83.5 180.5q0 116 -83.5 192.5t-211.5 108.5q-131 -31 -218 -107t-87 -192zM330 1073q0 -104 74 -168.5t192 -89.5q117 26 190.5 90t73.5 170q0 101 -68.5 162t-193.5 61q-123 0 -195.5 -60t-72.5 -165z" />
<glyph unicode="9" horiz-adv-x="1191" d="M117 963q0 112 38 205t102.5 154t149.5 94.5t181 33.5q155 0 260 -65t156 -181q71 -154 71 -497q0 -188 -36 -329t-103 -226t-155.5 -126.5t-198.5 -41.5q-82 0 -154.5 24t-123 62.5t-87.5 86.5t-54.5 96.5t-17.5 92.5q0 19 5 27t18 8h121q27 0 33 -25q6 -42 35 -91 t87.5 -89.5t128.5 -40.5q164 0 241 119.5t89 366.5q-96 -125 -319 -125q-108 0 -197.5 38t-148 102.5t-90 148.5t-31.5 178zM295 963q0 -142 87.5 -231t203.5 -89q59 0 111 18.5t95 56t68 100.5t25 145q0 158 -81.5 247.5t-219.5 89.5q-55 0 -104 -17t-92 -53.5t-68.5 -105 t-24.5 -161.5z" />
<glyph unicode=":" horiz-adv-x="428" d="M123 31v125q0 30 33 30h123q32 0 32 -30v-125q0 -31 -32 -31h-123q-33 0 -33 31zM123 727v125q0 31 33 31h123q32 0 32 -31v-125q0 -31 -32 -31h-123q-33 0 -33 31z" />
<glyph unicode=";" horiz-adv-x="442" d="M123 723v133q0 31 33 31h133q33 0 33 -31v-133q0 -31 -33 -31h-133q-33 0 -33 31zM127 31v135q0 31 33 31h133q33 0 33 -31v-135q0 -7 -4 -15l-95 -237h-51q-10 0 -17.5 9t-2.5 24l71 188h-67q-33 0 -33 31z" />
<glyph unicode="&#x3c;" horiz-adv-x="1144" d="M117 684v66q-7 21 24 34l811 338q32 13 43 -16l27 -72q10 -29 -18 -41l-662 -276l664 -275q28 -12 18 -41l-29 -71q-13 -29 -43 -17l-811 336q-31 13 -24 35z" />
<glyph unicode="=" horiz-adv-x="1048" d="M117 500v75q0 31 33 31h749q33 0 33 -31v-75q0 -31 -33 -31h-749q-33 0 -33 31zM117 846v78q0 30 33 30h749q33 0 33 -30v-78q0 -31 -33 -31h-749q-33 0 -33 31z" />
<glyph unicode="&#x3e;" horiz-adv-x="1144" d="M121 401q-10 29 18 41l662 275l-660 276q-28 12 -18 41l27 72q11 29 43 16l811 -338q26 -13 24 -30v-74q3 -18 -24 -31l-811 -336q-30 -12 -43 17z" />
<glyph unicode="?" horiz-adv-x="995" d="M106 1159q13 54 40 102t73.5 92.5t122.5 70.5t172 26h2q106 0 186.5 -35.5t126 -94.5t67.5 -127.5t22 -143.5q0 -77 -16 -138.5t-49 -109.5t-66 -81t-82 -71q-112 -87 -147.5 -153.5t-35.5 -143.5q0 -28 -26 -28h-117q-29 0 -29 28q0 112 34.5 192t143.5 167 q71 53 116 99.5t65 88t26 70.5t6 67q0 139 -62 200.5t-165 61.5q-58 0 -104.5 -18.5t-74 -48t-43.5 -58.5t-24 -59q-5 -19 -28 -14l-119 28q-22 6 -15 31zM346 14v133q0 31 33 31h119q32 0 32 -31v-133q0 -30 -32 -30h-119q-33 0 -33 30z" />
<glyph unicode="@" horiz-adv-x="1785" d="M129 430q-1 179 52 322t147.5 234.5t221 139.5t275.5 48h471q162 0 251 -79t89 -229v-614q0 -135 -74 -202.5t-192 -67.5q-90 0 -139 29t-84 95q-98 -122 -279 -122q-130 0 -223.5 62.5t-137.5 163.5t-44 228q0 195 107 320t300 125q153 0 248 -86l27 37q24 32 49 32h68 q12 0 20 -9t8 -23v-617q0 -48 22.5 -73t57.5 -25q96 0 96 143v604q0 77 -43.5 122.5t-126.5 45.5h-471q-110 0 -204.5 -38.5t-166.5 -112.5t-113.5 -190.5t-41.5 -262.5q0 -214 102 -387q9 -12 2.5 -27.5t-24.5 -15.5h-111q-20 0 -36 13t-25 30q-78 183 -78 387zM631 436 q0 -151 64 -233t182 -82q75 0 123 19.5t73.5 62t35 96t9.5 135.5q0 84 -9.5 137.5t-35.5 94.5t-73.5 59t-122.5 18q-116 0 -181 -77t-65 -230z" />
<glyph unicode="A" d="M90 43l578 1389q9 18 26 18h37h17q18 0 24 -18l586 -1391q6 -15 -4 -28t-25 -13h-117q-19 0 -26 20l-117 281h-692l-117 -283q-7 -18 -27 -18h-116q-14 0 -24 13t-3 30zM438 453h568l-285 684z" />
<glyph unicode="B" horiz-adv-x="1269" d="M150 31v1372q0 12 9 21.5t21 9.5h121h442q160 -2 262.5 -106.5t102.5 -283.5q0 -185 -147 -301q92 -42 145 -129t53 -206q0 -167 -111.5 -286.5t-263.5 -121.5h-514h-90q-12 0 -21 9.5t-9 21.5zM330 152h413q93 0 164.5 73.5t71.5 188.5q0 58 -18 102t-42 67t-57 37.5 t-55 18t-43 4.5h-119h-315v-491zM330 793h377q90 0 155.5 63t65.5 184q0 112 -65.5 177t-160.5 65h-372v-489z" />
<glyph unicode="C" horiz-adv-x="1466" d="M88 717q0 197 97.5 365.5t266.5 268t369 99.5q159 0 302 -65.5t237 -186.5q8 -13 6.5 -23.5t-8.5 -15.5l-74 -74q-7 -9 -21.5 -8.5t-21.5 10.5q-62 86 -176.5 148.5t-243.5 62.5q-149 0 -276.5 -78.5t-202 -212.5t-74.5 -290q0 -151 75 -285.5t203.5 -215.5t274.5 -81 q133 0 249 64.5t183 162.5q9 11 22.5 12t22.5 -7l70 -68q10 -8 10.5 -21t-6.5 -20q-101 -132 -244.5 -203t-306.5 -71q-149 0 -285 59t-234 157.5t-156 234t-58 282.5z" />
<glyph unicode="D" horiz-adv-x="1380" d="M150 31v1372q0 12 9 21.5t21 9.5h121h352q129 -4 242 -55t196.5 -141.5t132 -225.5t48.5 -297q0 -159 -49 -293.5t-134 -225.5t-199.5 -142.5t-244.5 -53.5h-412h-53q-12 0 -21 9.5t-9 21.5zM330 152h305q92 0 174.5 38t145.5 108t100 178t37 239q0 132 -37 240.5 t-100 179t-145.5 109t-174.5 38.5h-305v-1130z" />
<glyph unicode="E" horiz-adv-x="1087" d="M150 31v1372q0 12 9 21.5t21 9.5h121h680q12 0 20.5 -9.5t8.5 -21.5v-90q0 -12 -8.5 -21.5t-20.5 -9.5h-651v-489h448q12 0 21.5 -8.5t9.5 -20.5v-94q0 -12 -9.5 -20.5t-21.5 -8.5h-448v-489h653q12 0 21.5 -9.5t9.5 -21.5v-90q0 -12 -9.5 -21.5t-21.5 -9.5h-729h-74 q-12 0 -21 9.5t-9 21.5z" />
<glyph unicode="F" horiz-adv-x="1060" d="M150 31v1372q0 12 9 21.5t21 9.5h121h660q12 0 21 -9.5t9 -21.5v-90q0 -12 -9 -21.5t-21 -9.5h-631v-534h446q12 0 21.5 -8.5t9.5 -20.5v-92q0 -12 -9.5 -20.5t-21.5 -8.5h-446v-567q0 -12 -8.5 -21.5t-20.5 -9.5h-121q-12 0 -21 9.5t-9 21.5z" />
<glyph unicode="G" horiz-adv-x="1521" d="M88 717q0 160 64 300t167 233t233 146.5t263 53.5q162 0 312.5 -62.5t238.5 -166.5q17 -20 -4 -41l-76 -76q-7 -8 -18.5 -7.5t-18.5 9.5q-20 22 -54 49t-90 62t-133 58t-157 23q-105 0 -204.5 -45t-174.5 -121.5t-121 -185.5q-47 -110 -47 -234q0 -109 44 -214 q46 -108 120 -187t172.5 -127.5t198.5 -48.5q237 0 389 119v299h-277q-13 0 -21.5 8.5t-8.5 20.5v82q0 12 8.5 20t21.5 8h431q12 0 20 -8t8 -20v-82v-396q0 -12 -8 -20q-77 -76 -240 -129t-323 -53q-127 0 -254 53t-230 146t-167 233.5t-64 300.5z" />
<glyph unicode="H" horiz-adv-x="1423" d="M150 31v1372q0 12 8.5 21.5t21.5 9.5h121q12 0 20.5 -9.5t8.5 -21.5v-610h764v610q0 12 8.5 21.5t21.5 9.5h121q12 0 20.5 -9.5t8.5 -21.5v-1372q0 -12 -8.5 -21.5t-20.5 -9.5h-121q-13 0 -21.5 9.5t-8.5 21.5v610h-764v-610q0 -12 -8.5 -21.5t-20.5 -9.5h-121 q-12 0 -21 9.5t-9 21.5z" />
<glyph unicode="I" horiz-adv-x="501" d="M152 31v1372q0 12 9 21.5t21 9.5h121q12 0 20.5 -9.5t8.5 -21.5v-1372q0 -12 -8.5 -21.5t-20.5 -9.5h-121q-12 0 -21 9.5t-9 21.5z" />
<glyph unicode="J" horiz-adv-x="1015" d="M51 207q-4 10 0 21t15 16l90 57q23 9 41 -16q36 -57 101 -102.5t146 -45.5q106 0 174 74t68 225v965q0 14 8.5 23.5t20.5 9.5h121q12 0 21 -10t9 -23v-971q-1 -93 -25 -169.5t-64 -127t-94 -85t-112 -49.5t-120 -15q-131 0 -243.5 65.5t-156.5 157.5z" />
<glyph unicode="K" horiz-adv-x="1257" d="M150 31v1372q0 12 9 21.5t21 9.5h121q12 0 20.5 -9.5t8.5 -21.5v-633l645 633q36 31 59 31h123q20 0 29 -20t-4 -30l-686 -667l684 -668q12 -12 5.5 -30.5t-28.5 -18.5h-123q-28 0 -59 31l-645 633v-633q0 -12 -8.5 -21.5t-20.5 -9.5h-121q-12 0 -21 9.5t-9 21.5z" />
<glyph unicode="L" horiz-adv-x="1079" d="M145 31v1370q0 13 9.5 23t21.5 10h121q12 0 20.5 -9.5t8.5 -23.5v-1249h651q12 0 20.5 -9.5t8.5 -21.5v-90q0 -12 -8.5 -21.5t-20.5 -9.5h-705h-96q-12 0 -21.5 9.5t-9.5 21.5z" />
<glyph unicode="M" horiz-adv-x="1667" d="M150 29v1374q0 12 8 21.5t20 9.5h80h43q12 0 25.5 -9.5t19.5 -21.5l488 -1079l489 1079q6 12 19.5 21.5t25.5 9.5h72h49q12 0 20.5 -9.5t8.5 -21.5v-1374q0 -12 -8.5 -20.5t-20.5 -8.5h-121q-12 0 -21.5 8.5t-9.5 20.5v1007l-465 -1022q-5 -9 -6.5 -12t-5.5 -8.5t-8 -7.5 t-10 -2h-13h-4q-11 0 -16.5 7t-13.5 23l-465 1026v-1011q0 -12 -9.5 -20.5t-21.5 -8.5h-121q-12 0 -20 8.5t-8 20.5z" />
<glyph unicode="N" horiz-adv-x="1386" d="M150 29v1374q0 12 9 21.5t21 9.5h72h20q13 0 28 -9t22 -22l735 -1077v1077q0 12 8 21.5t20 9.5h121q12 0 21.5 -9.5t9.5 -21.5v-1374q0 -12 -9.5 -20.5t-21.5 -8.5h-71h-19q-32 0 -51 29l-735 1071v-1071q0 -12 -8.5 -20.5t-20.5 -8.5h-121q-12 0 -21 8.5t-9 20.5z" />
<glyph unicode="O" horiz-adv-x="1638" d="M88 715q0 200 98 369t266.5 267.5t368.5 98.5q198 0 366.5 -98.5t266.5 -267.5t98 -369q0 -148 -58 -283.5t-156 -233.5t-233.5 -156t-283.5 -58q-200 0 -368.5 98t-266.5 266.5t-98 366.5zM268 715q0 -118 44 -226t118.5 -185.5t176.5 -123t214 -45.5q110 0 211.5 46 t176 123t119 185t44.5 226q0 158 -75.5 292.5t-202.5 212.5t-273 78q-149 0 -276.5 -78t-202 -212.5t-74.5 -292.5z" />
<glyph unicode="P" horiz-adv-x="1173" d="M145 29v1374q0 12 9 21.5t22 9.5h121h414q158 -2 266 -125.5t108 -325.5q0 -204 -114 -324t-277 -122h-368v-508q0 -12 -8.5 -20.5t-20.5 -8.5h-121q-13 0 -22 8.5t-9 20.5zM326 688h311q64 0 112.5 18.5t77.5 47.5t47 69t24.5 78.5t6.5 81.5t-6.5 81t-25 79.5t-47.5 71 t-78.5 48.5t-114.5 19h-307v-594z" />
<glyph unicode="Q" horiz-adv-x="1615" d="M70 715q0 200 98 369t266.5 267.5t368.5 98.5q198 0 366.5 -98.5t266.5 -267.5t98 -369q0 -274 -176 -475l155 -156q8 -8 8.5 -20t-8.5 -21l-79 -80q-8 -7 -21 -7t-20 7l-160 160q-191 -139 -430 -139q-200 0 -368.5 98t-266.5 266.5t-98 366.5zM250 715 q0 -118 44.5 -226t119 -185.5t176.5 -123t213 -45.5q110 0 211.5 46t176 123t119 185t44.5 226q0 158 -75.5 292.5t-202.5 212.5t-273 78q-148 0 -275.5 -78t-202.5 -212.5t-75 -292.5z" />
<glyph unicode="R" horiz-adv-x="1323" d="M145 29v1374q0 12 9 21.5t22 9.5h121h496q70 -1 136 -28.5t120 -78.5t87 -134t33 -185q0 -150 -72.5 -259.5t-187.5 -152.5l281 -553q8 -18 -2.5 -30.5t-24.5 -12.5h-119q-12 0 -24.5 9.5t-18.5 21.5l-276 540h-399v-542q0 -12 -8.5 -20.5t-20.5 -8.5h-121q-13 0 -22 8.5 t-9 20.5zM326 723h409q60 0 106 18t73 46t44.5 67t24 76t6.5 78q0 274 -256 274h-407v-559z" />
<glyph unicode="S" horiz-adv-x="1263" d="M115 178q-16 16 0 41l61 74q19 25 45 8q2 -1 20.5 -17t39.5 -32.5t58 -38t77 -37.5t96 -27.5t115 -11.5q34 0 75 6.5t90.5 24.5t89 45t66.5 74t27 106q0 46 -19.5 83t-48 60.5t-77.5 44t-90 32.5t-104 28q-21 5 -32 8q-241 61 -361 154.5t-120 253.5q0 53 15.5 105.5 t53 105t93.5 92.5t143.5 65t196.5 25q285 0 469 -145q21 -15 2 -45l-60 -80q-5 -9 -16 -11t-23 7q-168 120 -368 120q-142 0 -234 -64.5t-92 -164.5q0 -98 89.5 -156.5t269.5 -103.5q182 -43 271 -86q221 -110 222 -328q0 -54 -16.5 -108.5t-56.5 -109.5t-99 -97t-151 -68 t-205 -26q-318 0 -512 194z" />
<glyph unicode="T" horiz-adv-x="1200" d="M88 1313v88q0 12 9.5 22.5t21.5 10.5h465h94h440q12 0 20.5 -10.5t8.5 -22.5v-88q0 -12 -8.5 -21.5t-20.5 -9.5h-409v-1251q0 -12 -9.5 -21.5t-21.5 -9.5h-121q-12 0 -20.5 9.5t-8.5 21.5v1251h-409q-12 0 -21.5 9.5t-9.5 21.5z" />
<glyph unicode="U" horiz-adv-x="1353" d="M145 592v809q0 13 9.5 23t21.5 10h121q12 0 20.5 -9.5t8.5 -23.5v-770q0 -261 81.5 -378.5t268.5 -117.5q186 0 268 118t82 378v770q0 13 9.5 23t21.5 10h121q12 0 20 -9.5t8 -23.5v-809q-1 -142 -27.5 -249t-86.5 -190t-164.5 -126t-251.5 -43q-146 0 -250.5 43 t-165 126t-88 190.5t-27.5 248.5z" />
<glyph unicode="V" horiz-adv-x="1409" d="M70 1391q-7 19 2.5 31t23.5 12h115q12 0 25 -10t18 -21l451 -1106l450 1106q4 12 17.5 21.5t25.5 9.5h115q14 0 23.5 -13t2.5 -30l-571 -1371q-10 -20 -29 -20h-51h-18q-20 0 -29 23z" />
<glyph unicode="W" horiz-adv-x="1953" d="M72 1393q-4 18 5.5 29.5t22.5 11.5h119q19 0 27 -21l362 -1034l299 1034q6 21 29 21h74h6q20 0 28 -21l308 -1034l356 1034q9 21 29 21h118q13 0 22 -12.5t5 -28.5l-483 -1373q-7 -20 -27 -20h-51q-18 0 -27 18l-317 1045l-309 -1043q-6 -20 -29 -20h-47q-20 0 -29 20z " />
<glyph unicode="X" horiz-adv-x="1257" d="M71.5 14q-9.5 14 0.5 33l458 692l-426 647q-10 19 -1 33.5t26 14.5h113q12 0 26.5 -9.5t22.5 -21.5l338 -514l340 514q8 12 22.5 21.5t26.5 9.5h112q16 0 26 -15.5t-1 -32.5l-426 -647l459 -694q9 -12 1 -28.5t-28 -16.5h-112q-28 0 -50 29l-370 561l-369 -561 q-22 -29 -51 -29h-113q-15 0 -24.5 14z" />
<glyph unicode="Y" horiz-adv-x="1308" d="M75.5 1420q10.5 14 26.5 14h109q28 0 51 -31l393 -633l394 633q23 31 49 31h110q16 0 26.5 -15t0.5 -33l-490 -774v-583q0 -12 -9 -20.5t-21 -8.5h-119q-12 0 -21.5 8.5t-9.5 20.5v581l-489 779q-11 17 -0.5 31z" />
<glyph unicode="Z" horiz-adv-x="1269" d="M115 43l809 1239h-731q-12 0 -20.5 8.5t-8.5 20.5v90q0 14 8.5 23.5t20.5 9.5h933h37q16 0 26 -15.5t1 -29.5l-809 -1237h780q11 0 20 -9t9 -22v-90q0 -13 -8.5 -22t-20.5 -9h-1009h-11q-17 0 -25.5 14.5t-0.5 28.5z" />
<glyph unicode="[" horiz-adv-x="598" d="M117 -317v1955q0 12 9 21.5t21 9.5h119h183q32 0 32 -31v-90q0 -30 -32 -30h-154v-1715h154q32 0 32 -30v-90q0 -31 -32 -31h-216h-86q-12 0 -21 9.5t-9 21.5z" />
<glyph unicode="\" horiz-adv-x="870" d="M68 1397q-6 15 0.5 26t21.5 11h98q29 0 41 -31l574 -1358q6 -16 -2 -30.5t-29 -14.5h-84q-31 0 -43 31z" />
<glyph unicode="]" horiz-adv-x="598" d="M117 -227q0 30 33 30h153v1715h-153q-33 0 -33 30v90q0 31 33 31h215h86q12 0 21 -9.5t9 -21.5v-1955q0 -12 -9 -21.5t-21 -9.5h-119h-182q-33 0 -33 31v90z" />
<glyph unicode="^" horiz-adv-x="790" d="M121 1190l207 418q13 30 41 30h47h6q15 0 23.5 -6.5t17.5 -23.5l207 -418q8 -16 -1 -30.5t-30 -14.5h-33q-14 0 -22.5 7t-20.5 24l-168 251l-168 -251q-12 -17 -20.5 -24t-22.5 -7h-32q-21 0 -30 14.5t-1 30.5z" />
<glyph unicode="_" horiz-adv-x="1257" d="M117 -172q0 31 33 31h958q33 0 33 -31v-43q0 -31 -33 -31h-958q-33 0 -33 31v43z" />
<glyph unicode="`" horiz-adv-x="602" d="M125 1559l47 71q23 27 47 6l250 -237q24 -24 10 -43l-24 -35q-21 -24 -45 -6l-279 198q-25 25 -6 46z" />
<glyph unicode="a" horiz-adv-x="1017" d="M76 432q0 95 26.5 176.5t76 143t127 96.5t173.5 35q142 0 238 -103l41 54q24 32 49 32h65q12 0 20.5 -9.5t8.5 -22.5v-803q0 -12 -9 -21.5t-20 -9.5h-53q-40 0 -57 39l-29 59q-96 -114 -254 -114q-189 0 -296 126t-107 322zM242 432q0 -138 68 -224.5t175 -86.5 q141 0 195.5 76.5t54.5 232.5q0 74 -10.5 126.5t-36.5 97t-76 67t-125 22.5q-117 0 -181 -82.5t-64 -228.5z" />
<glyph unicode="b" horiz-adv-x="1021" d="M119 31v1386q0 13 9.5 23t21.5 10h104q13 0 22 -9.5t9 -23.5v-645q103 111 260 111q120 0 212 -63.5t138.5 -167t46.5 -228.5q0 -192 -109 -316t-286 -124q-162 0 -268 114l-29 -59q-20 -39 -47 -39h-53q-12 0 -21.5 9.5t-9.5 21.5zM283 434q0 -161 57 -237t172 -76 q129 0 196.5 86t67.5 231q0 63 -13.5 115.5t-43 96.5t-82 68.5t-123.5 24.5q-231 0 -231 -309z" />
<glyph unicode="c" horiz-adv-x="974" d="M78 430q0 187 136.5 320t322.5 133q104 0 195.5 -40.5t152.5 -113.5q14 -20 -2 -39l-64 -65q-9 -9 -21.5 -8.5t-19.5 10.5q-88 116 -237 116q-123 0 -209 -89.5t-86 -223.5q0 -127 86.5 -218t208.5 -91q49 0 92.5 13.5t73.5 35.5t48.5 39.5t30.5 34.5q5 9 17.5 11 t25.5 -7l58 -58q18 -18 4 -38q-59 -80 -150.5 -124t-203.5 -44q-186 0 -322.5 131t-136.5 315z" />
<glyph unicode="d" horiz-adv-x="1021" d="M78 430q0 126 45 227.5t135.5 163.5t212.5 62q160 0 264 -107v641q0 13 9.5 23t21.5 10h108q12 0 20.5 -9.5t8.5 -23.5v-1386q0 -12 -8.5 -21.5t-20.5 -9.5h-55q-35 0 -49 39l-31 65q-105 -120 -270 -120q-178 0 -284.5 126.5t-106.5 319.5zM246 438q0 -151 68 -234 t196 -83q57 0 99 17.5t66.5 46t39 73t19.5 88.5t5 103q0 294 -235 294q-134 0 -196 -82t-62 -223z" />
<glyph unicode="e" horiz-adv-x="1007" d="M76 434q0 129 61.5 233t161 160t215.5 56q203 0 307.5 -127t104.5 -342q0 -13 -10 -22t-21 -9h-135h-512q19 -121 100 -192.5t178 -71.5q135 0 248 96q23 23 43 -6l45 -55q17 -24 0 -43q-43 -48 -141.5 -87.5t-208.5 -39.5q-118 0 -217.5 56.5t-159 160.5t-59.5 233z M248 508h506q-12 106 -78 173t-170 67q-95 0 -168 -64t-90 -176z" />
<glyph unicode="f" horiz-adv-x="786" d="M66 758v78q0 12 8 21t20 9h101v213v2q1 71 13 127.5t30.5 94.5t47.5 66t57 43t66 24t68.5 11.5t69.5 2.5q116 0 203 -53q27 -19 12 -43l-45 -68q-16 -25 -39 -10q-59 35 -125 35q-102 0 -144 -54.5t-42 -185.5v-205h245q12 0 21.5 -9t9.5 -21v-78q0 -12 -9.5 -21.5 t-21.5 -9.5h-245v-696q0 -31 -31 -31h-111q-13 0 -21.5 8.5t-8.5 22.5v696h-101q-12 0 -20 9.5t-8 21.5z" />
<glyph unicode="g" horiz-adv-x="1015" d="M76 438q0 193 106 319t295 126q139 0 234 -95l34 46q24 32 50 32h75q12 0 20.5 -9.5t8.5 -22.5v-803v-178q0 -175 -106 -283.5t-295 -108.5q-134 0 -235.5 60.5t-145.5 148.5q-9 14 6 29l65 63q9 7 21 6t18 -10q41 -73 110.5 -114t160.5 -41q30 0 58.5 5t63 22t60 44.5 t42.5 77.5t17 115l-2 225q-91 -108 -258 -108q-128 0 -221.5 64.5t-137.5 165.5t-44 224zM242 440q0 -142 66.5 -230.5t178.5 -88.5q62 0 107 15.5t72 41t43 67t21 85t5 104.5q0 57 -4 96.5t-19 83t-41 69.5t-73 43t-113 17q-117 0 -180 -83.5t-63 -219.5z" />
<glyph unicode="h" horiz-adv-x="1013" d="M119 31v1386q0 15 9.5 24t21.5 9h112q12 0 20.5 -9t8.5 -24v-639q98 105 264 105q148 0 245 -100t97 -300v-452q0 -13 -8.5 -22t-20.5 -9h-112q-12 0 -21.5 9t-9.5 22v448q0 126 -56 195t-157 69q-56 0 -100.5 -18t-69.5 -46.5t-38 -60t-13 -61.5v-526q0 -13 -8.5 -22 t-20.5 -9h-112q-12 0 -21.5 9t-9.5 22z" />
<glyph unicode="i" horiz-adv-x="475" d="M135 1307q0 42 30.5 72t72.5 30t72 -30t30 -72q0 -41 -30.5 -71t-71.5 -30t-72 30t-31 71zM152 29v802q0 15 9 25t21 10h111q13 0 22 -10t9 -25v-802q0 -12 -9 -20.5t-22 -8.5h-111q-12 0 -21 8.5t-9 20.5z" />
<glyph unicode="j" horiz-adv-x="507" d="M-274 -391q-12 21 8 37l80 53q26 15 39 -8q70 -123 180 -123q81 0 125.5 54.5t44.5 182.5l-2 1031q0 12 8 21t20 9h113q13 0 22 -9t9 -21l2 -1037q0 -184 -91 -278t-253 -94q-206 0 -305 182zM186 1307q0 41 31 71.5t72 30.5t71.5 -30.5t30.5 -71.5t-30.5 -72t-71.5 -31 t-72 31t-31 72z" />
<glyph unicode="k" horiz-adv-x="946" d="M119 31v1386q0 14 8 23.5t20 9.5h113q12 0 21.5 -10t9.5 -23v-891l346 310q37 30 63 30h107q20 0 27 -18t-9 -35l-360 -324l434 -442q11 -12 3 -29.5t-28 -17.5h-100q-32 0 -61 29l-422 430v-428q0 -13 -9.5 -22t-21.5 -9h-113q-12 0 -20 9t-8 22z" />
<glyph unicode="l" horiz-adv-x="442" d="M135 31v1386q0 14 8.5 23.5t20.5 9.5h112q12 0 21.5 -10t9.5 -23v-1386q0 -13 -9.5 -22t-21.5 -9h-112q-12 0 -20.5 9t-8.5 22z" />
<glyph unicode="m" horiz-adv-x="1601" d="M117 31v800q0 14 9 24.5t21 10.5h82q27 0 37 -35l21 -63q103 115 272 115q195 0 279 -131q54 60 131 95.5t155 35.5q194 0 277.5 -92.5t83.5 -280.5v-479q0 -12 -9.5 -21.5t-21.5 -9.5h-113q-12 0 -20 9.5t-8 21.5v473q0 123 -50 181t-151 58q-97 0 -161 -53t-64 -135 v-524q0 -13 -8.5 -22t-22.5 -9h-113q-28 0 -28 31v450q0 144 -46.5 203t-150.5 59t-166.5 -54t-62.5 -134v-524q0 -14 -8 -22.5t-21 -8.5h-113q-13 0 -21.5 8.5t-8.5 22.5z" />
<glyph unicode="n" horiz-adv-x="1056" d="M117 31v800q0 13 7 24t21 11h88q10 0 20.5 -9.5t14.5 -25.5l21 -65q50 56 124.5 86.5t161.5 30.5q365 0 365 -385v-467q0 -14 -11 -22.5t-22 -8.5h-108q-31 0 -31 31v454q0 132 -50.5 195t-182.5 63q-119 0 -182.5 -55.5t-63.5 -130.5v-526q0 -31 -31 -31h-113 q-28 0 -28 31z" />
<glyph unicode="o" horiz-adv-x="1058" d="M78 430q0 189 129.5 321t322.5 132q192 0 321.5 -132t129.5 -321q0 -186 -129.5 -316t-321.5 -130q-193 0 -322.5 130t-129.5 316zM248 430v-6q0 -127 80 -214q82 -89 202 -89t201.5 89t81.5 220q0 133 -81.5 223t-201.5 90q-122 0 -202.5 -90t-79.5 -223z" />
<glyph unicode="p" horiz-adv-x="1001" d="M117 -543v1374q0 15 8 25t20 10h52q28 0 41 -37l30 -73q110 127 277 127q118 0 209 -62.5t138.5 -166t47.5 -228.5q0 -190 -109 -316t-284 -126q-159 0 -264 110v-637q0 -12 -9.5 -21t-21.5 -9h-107q-12 0 -20 9t-8 21zM281 426q0 -305 231 -305q121 0 191.5 82t70.5 227 q0 143 -69 228t-187 85t-177.5 -82t-59.5 -235z" />
<glyph unicode="q" horiz-adv-x="1015" d="M76 430q0 195 113.5 324t302.5 129q137 0 237 -97l45 43q37 37 55 37h41q12 0 20.5 -10t8.5 -25v-1374q0 -12 -8.5 -21t-20.5 -9h-106q-12 0 -21.5 9t-9.5 21v633q-99 -106 -246 -106q-187 0 -299 127.5t-112 318.5zM242 430q0 -133 68 -221t190 -88q129 0 182 78.5 t53 230.5q0 160 -50 236.5t-185 76.5q-120 0 -189 -90t-69 -223z" />
<glyph unicode="r" horiz-adv-x="765" d="M117 31v800q0 15 8.5 25t21.5 10h68q25 0 41 -35l12 -32q84 84 228 84q123 0 217 -62q11 -7 14 -18.5t-4 -18.5l-51 -84q-14 -21 -37 -8q-62 53 -152 53q-77 0 -135.5 -49t-58.5 -137v-528q0 -13 -9.5 -22t-21.5 -9h-111q-13 0 -21.5 8.5t-8.5 22.5z" />
<glyph unicode="s" horiz-adv-x="821" d="M68 133l36 66q13 29 41 12q127 -90 261 -90q184 0 184 131q0 49 -45.5 75.5t-141.5 49.5q-156 36 -236.5 92.5t-80.5 159.5q0 104 88 179t223 75q100 0 163 -16.5t128 -53.5q25 -14 12 -39l-34 -65q0 -1 -2.5 -4t-3.5 -4l-3.5 -3.5t-4.5 -3.5t-5 -2t-6 -0.5t-7 1.5t-9 3 q-100 49 -207 49q-33 0 -58.5 -4t-52 -15.5t-41 -36t-14.5 -60.5q0 -31 41 -62t127 -51q7 -2 21 -5q43 -10 65.5 -16t61.5 -18.5t60.5 -24.5t49.5 -32t42.5 -42.5t25 -55t10.5 -70.5q0 -31 -9.5 -64.5t-35 -71t-63.5 -66t-101 -47.5t-141 -19q-97 0 -188 29.5t-146 80.5 q-16 16 -4 39z" />
<glyph unicode="t" horiz-adv-x="743" d="M78 760v71q0 15 8 25t20 10h95v215q0 14 8.5 22.5t21.5 8.5h111q12 0 21.5 -9t9.5 -22v-215h229q12 0 21.5 -10t9.5 -25v-71q0 -14 -9.5 -23.5t-21.5 -9.5h-229v-461q0 -25 1.5 -42.5t7.5 -38t16.5 -33t30 -21t46.5 -8.5q78 0 141 63q8 8 23 8t23 -12l40 -71 q10 -21 -6 -37q-38 -37 -108.5 -63.5t-147.5 -26.5q-236 0 -239 247v496h-95q-12 0 -20 9t-8 24z" />
<glyph unicode="u" horiz-adv-x="1050" d="M117 346v485q0 15 8 25t20 10h113q12 0 21.5 -10t9.5 -25v-471q0 -104 60.5 -171.5t180.5 -67.5q60 0 106.5 18t73 46.5t40 59.5t14.5 62v524q0 35 31 35h110q12 0 21.5 -10t9.5 -25v-802q0 -12 -9.5 -20.5t-21.5 -8.5h-51q-28 0 -45 29l-47 73q-92 -118 -281 -118 q-174 0 -269 102.5t-95 259.5z" />
<glyph unicode="v" horiz-adv-x="937" d="M39 823q-5 13 3.5 28t25.5 15h116q19 0 31 -30l254 -600l254 600q15 30 31 30h114q18 0 27 -14t2 -31l-367 -792q-13 -29 -32 -29h-45h-13q-21 0 -34 29z" />
<glyph unicode="w" horiz-adv-x="1288" d="M61 823q-6 14 1.5 28.5t25.5 14.5h107q23 0 30 -20l164 -570l213 570q8 20 25 20h28h11q19 0 26 -20l211 -563l162 561q5 22 31 22h106q16 0 24 -14t3 -29l-264 -803q-9 -20 -29 -20h-45h-21q-18 0 -28 20l-197 582l-196 -584q-5 -18 -27 -18h-49h-19q-19 0 -28 18z" />
<glyph unicode="x" horiz-adv-x="892" d="M103 852q9 14 26 14h86q12 0 27 -9t22 -21l182 -279l185 279q7 12 22 21t27 9h84q16 0 25.5 -15t-1.5 -32l-256 -391l252 -383q9 -12 1.5 -28.5t-27.5 -16.5h-86q-12 0 -27 8.5t-22 20.5l-177 268l-174 -268q-7 -12 -23 -20.5t-28 -8.5h-84q-15 0 -24.5 14t0.5 33 l249 379l-258 393q-10 19 -1 33z" />
<glyph unicode="y" horiz-adv-x="1034" d="M57 823q-7 13 1 28t26 15h111q22 0 34 -30l273 -615l317 627q7 18 29 18h100q15 0 25.5 -13t3.5 -30l-698 -1380q-8 -16 -27 -16h-102q-15 0 -25 13t-2 30l293 579z" />
<glyph unicode="z" horiz-adv-x="862" d="M85.5 15q-8.5 15 4.5 34l449 678h-392q-12 0 -21 8.5t-9 20.5v80q0 12 9 21t21 9h543h62q18 0 25.5 -15t-3.5 -34l-442 -678h401q12 0 21.5 -9t9.5 -21v-80q0 -12 -9.5 -20.5t-21.5 -8.5h-557h-65q-17 0 -25.5 15z" />
<glyph unicode="{" horiz-adv-x="694" d="M117 614v91q0 30 33 30h22q4 0 10 0.5t22 6.5t28 15.5t22 30.5t10 50v616q0 109 46 162t155 53h61h19q33 0 33 -31v-90q0 -30 -33 -30h-47q-2 0 -5.5 -0.5t-13 -4t-16.5 -9.5t-13 -19t-6 -31v-631q0 -67 -39 -109t-100 -55q61 -13 100 -54.5t39 -108.5v-631 q0 -28 14 -44.5t28 -18.5l14 -3h45q33 0 33 -30v-91q0 -30 -33 -30h-66h-14q-104 0 -152.5 52t-48.5 165v616q0 28 -9.5 49t-23 30.5t-27 15.5t-22.5 7l-10 1h-22q-33 0 -33 30z" />
<glyph unicode="|" horiz-adv-x="462" d="M150 -209v1843q0 15 9 25t21 10h103q13 0 21.5 -10t8.5 -25v-1843q0 -12 -8.5 -20.5t-21.5 -8.5h-103q-12 0 -21 8.5t-9 20.5z" />
<glyph unicode="}" horiz-adv-x="694" d="M117 -231q0 30 33 30h45q2 0 6 0.5t13.5 4t16.5 9.5t13 20t6 32v631q0 67 39 109.5t100 53.5q-61 13 -100 55t-39 109v631q0 28 -13 44t-27 18l-13 2h-47q-33 0 -33 30v90q0 31 33 31h65h14q109 0 155 -53t46 -162v-616q0 -29 9.5 -50t23 -30.5t27 -15.5t22.5 -6l10 -1 h23q33 0 33 -30v-91q0 -30 -33 -30h-23q-4 0 -10 -1t-22 -7t-28 -15.5t-22 -30.5t-10 -49v-616q0 -113 -48.5 -165t-152.5 -52h-61h-18q-33 0 -33 30v91z" />
<glyph unicode="~" horiz-adv-x="1040" d="M119 664q10 46 76.5 98t160.5 53h2q87 -1 181 -35.5t155 -34.5q63 0 101 13t71 41q15 12 29 4l18 -19q15 -7 9 -24q-12 -48 -75 -99.5t-153 -52.5h-2q-77 0 -135 17t-104.5 34t-96.5 17q-124 0 -182 -53q-16 -13 -29 -2l-18 18q-14 7 -8 25z" />
<glyph unicode="&#xa1;" horiz-adv-x="423" d="M117 -551l39 1073q0 31 32 31h48q32 0 32 -31l39 -1073q0 -31 -31 -31h-131q-28 0 -28 31zM119 721v133q0 31 33 31h120q33 0 33 -31v-133q0 -31 -33 -31h-120q-33 0 -33 31z" />
<glyph unicode="&#xa2;" horiz-adv-x="974" d="M78 430q0 163 106.5 287t264.5 157v113q0 15 9 25t21 10h109q13 0 21.5 -10t8.5 -25v-110q166 -25 267 -148q14 -20 -2 -39l-64 -65q-9 -9 -21.5 -8.5t-19.5 10.5q-66 86 -160 108v-604q103 26 168 113q5 9 17.5 11t25.5 -7l58 -58q18 -18 4 -38q-98 -134 -273 -162v-117 q0 -12 -8.5 -20.5t-21.5 -8.5h-109q-12 0 -21 8.5t-9 20.5v119q-158 33 -264.5 155.5t-106.5 282.5zM246 430q0 -100 56.5 -181t146.5 -112v592q-91 -31 -147 -112t-56 -187z" />
<glyph unicode="&#xa3;" horiz-adv-x="1138" d="M117 674v90q0 12 9 21.5t21 9.5h107v168q0 97 26.5 183t79 155.5t139.5 110t199 40.5q110 0 198 -47.5t146 -130.5q13 -19 -4 -39l-86 -51q-9 -8 -21 -7t-18 11q-81 112 -215 112q-73 0 -125.5 -26.5t-82 -74.5t-43 -106.5t-13.5 -131.5v-166h340q12 0 21.5 -9.5 t9.5 -21.5v-90q0 -12 -9.5 -21.5t-21.5 -9.5h-340v-301q0 -137 -53 -190h666q12 0 21 -9.5t9 -21.5v-90q0 -12 -9 -21.5t-21 -9.5h-893q-12 0 -21.5 9.5t-9.5 21.5v82q0 12 9.5 21t21.5 9h6q40 5 67 60.5t27 140.5v299h-107q-12 0 -21 9.5t-9 21.5z" />
<glyph unicode="&#xa4;" horiz-adv-x="1034" d="M116.5 1011q-0.5 13 8.5 21l78 62q9 7 22 6.5t19 -8.5l59 -68q93 68 215 68q117 0 209 -64l59 70q8 8 21 8.5t22 -6.5l78 -64q21 -18 0 -43l-67 -80q57 -91 57 -200q0 -111 -57 -199l67 -78q7 -9 7 -23t-7 -20l-78 -63q-9 -7 -22 -6.5t-19 8.5l-59 67q-97 -65 -211 -65 t-213 63l-59 -67q-6 -8 -19 -8.5t-22 6.5l-78 61q-7 6 -7 20t7 23l68 82q-56 91 -56 199q0 106 54 194l-68 82q-8 9 -8.5 22zM285 713q0 -95 69 -164.5t164 -69.5t164.5 69.5t69.5 164.5t-69.5 164t-164.5 69t-164 -69t-69 -164z" />
<glyph unicode="&#xa5;" horiz-adv-x="1310" d="M77.5 1420q10.5 14 26.5 14h109q28 0 51 -31l393 -633l392 633q23 31 49 31h112q16 0 26.5 -15t0.5 -33l-444 -702h172q12 0 21 -9.5t9 -21.5v-67q0 -12 -9 -21.5t-21 -9.5h-217v-174h217q12 0 21 -9.5t9 -21.5v-67q0 -12 -9 -21.5t-21 -9.5h-217v-223q0 -12 -9.5 -20.5 t-21.5 -8.5h-119q-12 0 -21.5 8.5t-9.5 20.5v223h-223q-12 0 -21.5 9.5t-9.5 21.5v67q0 12 9.5 21.5t21.5 9.5h223v174h-223q-12 0 -21.5 9.5t-9.5 21.5v67q0 12 9.5 21.5t21.5 9.5h176l-442 705q-11 17 -0.5 31z" />
<glyph unicode="&#xa6;" horiz-adv-x="462" d="M150 -209v709q0 15 9 25t21 10h103q13 0 21.5 -10t8.5 -25v-709q0 -12 -8.5 -20.5t-21.5 -8.5h-103q-12 0 -21 8.5t-9 20.5zM150 926v708q0 15 9 25t21 10h103q13 0 21.5 -10t8.5 -25v-708q0 -12 -8.5 -20.5t-21.5 -8.5h-103q-12 0 -21 8.5t-9 20.5z" />
<glyph unicode="&#xa7;" horiz-adv-x="1095" d="M113 600q0 77 46 158t136 131q-166 91 -166 246q0 42 14 84.5t46.5 84.5t79.5 74t118.5 52t157.5 20q232 0 377 -117q18 -15 2 -37l-64 -77q-16 -19 -33 -5q-116 89 -278 89q-116 0 -180 -42t-64 -118q0 -78 63.5 -121t204.5 -78q44 -10 71.5 -17t76 -23t80 -32t70.5 -43 t61.5 -57.5t38.5 -73t16 -92.5t-19 -101t-61.5 -100t-103.5 -79q164 -93 164 -256q0 -54 -25.5 -108.5t-76 -104.5t-139 -81.5t-200.5 -31.5q-249 0 -405 156q-14 11 0 32l67 76q17 17 35 2l27 -22q27 -22 57.5 -41.5t91 -37.5t129.5 -18q40 0 76 5.5t82 22t74 55.5t28 96 q0 37 -15.5 66t-29.5 45.5t-58.5 34.5t-62.5 23t-82 21q-20 5 -30 8q-93 23 -163 52t-124 69t-82 93t-28 118zM287 608q0 -78 64 -120.5t206 -77.5l66 -17q76 21 131 73t55 140q0 27 -7.5 49.5t-18 39t-31.5 30.5t-38.5 23t-49 19t-52.5 15.5t-59 14.5q-17 4 -25 6l-65 18 q-81 -20 -128.5 -80t-47.5 -133z" />
<glyph unicode="&#xa8;" horiz-adv-x="653" d="M117 1452q0 35 24 58.5t58 23.5t58 -23.5t24 -58.5q0 -34 -24 -57t-58 -23t-58 23t-24 57zM375 1452q0 35 23 58.5t57 23.5q35 0 58.5 -23.5t23.5 -58.5q0 -34 -23.5 -57t-58.5 -23q-34 0 -57 23t-23 57z" />
<glyph unicode="&#xa9;" horiz-adv-x="1697" d="M117 715q0 200 98 369t266.5 267.5t368.5 98.5q198 0 366.5 -98.5t266.5 -267.5t98 -369q0 -148 -58 -283.5t-156 -233.5t-233.5 -156t-283.5 -58q-200 0 -368.5 98t-266.5 266.5t-98 366.5zM264 715q0 -166 73.5 -304t208.5 -219t304 -81t303.5 81.5t207.5 219t73 303.5 t-73 304.5t-207.5 221t-303.5 82.5t-304 -82.5t-208.5 -221t-73.5 -304.5zM446 717q0 217 111.5 350t292.5 133q136 0 230.5 -67.5t129.5 -180.5q13 -38 -24 -47l-70 -12q-36 -8 -47 33q-14 58 -76 100.5t-143 42.5q-111 0 -182.5 -98t-71.5 -252q0 -168 77 -261t179 -93 q75 0 138 48.5t83 108.5q3 13 15.5 21t27.5 6l76 -17q13 -3 20 -16t2 -27q-31 -108 -130.5 -182t-233.5 -74q-182 0 -293 133t-111 351z" />
<glyph unicode="&#xaa;" horiz-adv-x="784" d="M82 932q0 98 83.5 172t213.5 74q109 0 172 -56v29q0 90 -39.5 129t-120.5 39q-15 0 -31 -1.5t-29.5 -4t-29.5 -6.5t-27 -7t-26 -8.5t-22 -8t-20.5 -7.5t-15.5 -6q-21 -7 -28 10l-23 70q-5 14 8 24q36 21 102.5 40.5t149.5 19.5q93 0 155 -23t93 -68.5t43 -99t12 -129.5 v-401q0 -10 -7.5 -18.5t-16.5 -8.5h-60q-27 0 -34 33l-9 39q-70 -90 -200 -90q-136 0 -214.5 77t-78.5 187zM227 213v90q0 12 9.5 21.5t21.5 9.5h299q12 0 21.5 -9.5t9.5 -21.5v-90q0 -12 -9.5 -21.5t-21.5 -9.5h-299q-12 0 -21.5 9.5t-9.5 21.5zM233 932q0 -74 46.5 -113 t109.5 -39q86 0 124 36t38 116q0 135 -162 135q-62 0 -109 -37t-47 -98z" />
<glyph unicode="&#xab;" horiz-adv-x="1003" d="M133 426v10v4q0 15 29 52l270 370q15 21 49 21h49q19 0 25 -11t-4 -28l-248 -410l248 -411q10 -17 4 -28t-25 -11h-49q-35 0 -49 20l-270 371q-29 37 -29 51zM483 426v10v4q0 15 29 52l270 370q15 21 49 21h50q19 0 24.5 -11t-4.5 -28l-248 -410l248 -411q10 -17 4.5 -28 t-24.5 -11h-50q-35 0 -49 20l-270 371q-29 37 -29 51z" />
<glyph unicode="&#xac;" horiz-adv-x="1050" d="M117 676v76q0 30 33 30h753q33 0 33 -30v-76v-264q0 -33 -31 -33h-100q-31 0 -31 33v233h-624q-33 0 -33 31z" />
<glyph unicode="&#xad;" horiz-adv-x="782" d="M117 524v78q0 31 33 31h485q33 0 33 -31v-78q0 -30 -33 -30h-485q-33 0 -33 30z" />
<glyph unicode="&#xae;" horiz-adv-x="1697" d="M117 715q0 200 98 369t266.5 267.5t368.5 98.5q198 0 366.5 -98.5t266.5 -267.5t98 -369q0 -148 -58 -283.5t-156 -233.5t-233.5 -156t-283.5 -58q-200 0 -368.5 98t-266.5 266.5t-98 366.5zM264 715q0 -165 73.5 -303t208.5 -219.5t304 -81.5t303.5 81.5t207.5 219.5 t73 303q0 166 -73 304.5t-207.5 221t-303.5 82.5t-304 -82.5t-208.5 -221t-73.5 -304.5zM535 274v889q0 6 4 11.5t10 5.5h108h301q118 0 183 -81.5t65 -195.5q0 -78 -32 -145t-91 -103q115 -147 115 -381q0 -6 -5 -10t-11 -4h-107q-6 0 -11 4t-5 10q0 84 -29 178.5 t-98 170.5h-258v-349q0 -6 -5.5 -10t-11.5 -4h-108q-14 0 -14 14zM674 743h260q68 0 100.5 47t32.5 113q0 39 -10 71.5t-42 58.5t-83 26h-258v-316z" />
<glyph unicode="&#xaf;" horiz-adv-x="669" d="M117 1401v69q0 31 33 31h370q33 0 33 -31v-69q0 -31 -33 -31h-370q-33 0 -33 31z" />
<glyph unicode="&#xb0;" horiz-adv-x="817" d="M117 1157q0 121 85.5 207t207.5 86q120 0 205 -86t85 -207t-85 -206t-205 -85q-122 0 -207.5 85t-85.5 206zM244 1157q0 -73 46.5 -122.5t119.5 -49.5q72 0 117.5 49.5t45.5 122.5q0 74 -45.5 124t-117.5 50t-119 -50.5t-47 -123.5z" />
<glyph unicode="&#xb1;" horiz-adv-x="1060" d="M117 29v69q0 31 33 31h761q33 0 33 -31v-69q0 -31 -33 -31h-761q-33 0 -33 31zM117 662v77q0 31 33 31h301v305q0 33 30 33h99q30 0 30 -33v-305h301q33 0 33 -31v-77q0 -31 -33 -31h-301v-303q0 -33 -30 -33h-99q-30 0 -30 33v303h-301q-33 0 -33 31z" />
<glyph unicode="&#xb2;" horiz-adv-x="772" d="M82 1417q7 44 25 83t52 74.5t92 56t134 20.5h2q139 0 209 -73t70 -185q0 -33 -7.5 -64t-18.5 -52t-22 -37.5t-18 -23.5l-8 -8l-316 -350h394q8 0 14 -5.5t6 -12.5v-88q0 -7 -6 -13t-14 -6h-568q-7 0 -12.5 5.5t-5.5 13.5v73q0 16 12 25l340 379q84 94 84 162 q0 66 -36 100.5t-99 34.5q-77 0 -115 -32.5t-47 -80.5q-6 -16 -18 -16h-105q-8 0 -13.5 6.5t-4.5 13.5z" />
<glyph unicode="&#xb3;" horiz-adv-x="776" d="M82 948q0 23 22 23h105q6 0 12 -4.5t6 -12.5q0 -47 45 -77.5t115 -30.5q84 0 125 38.5t41 100.5q0 148 -201 148h-33q-7 0 -12.5 5.5t-5.5 12.5v90q0 8 5.5 13.5t12.5 5.5h33q88 0 134 38.5t46 108.5q0 55 -39.5 88t-105.5 33q-72 0 -117 -32t-45 -83q0 -14 -18 -14h-103 q-22 0 -22 20q0 96 78 164t227 68h2q66 0 116.5 -15t81.5 -38t50.5 -56t27 -65t7.5 -68q0 -149 -113 -209q22 -7 42.5 -20.5t43 -37.5t36 -64.5t13.5 -92.5q0 -40 -8.5 -76t-30.5 -72t-55.5 -62t-87.5 -42t-123 -16h-2q-147 0 -226 70t-79 161z" />
<glyph unicode="&#xb4;" horiz-adv-x="602" d="M123 1356q-14 19 10 43l250 237q24 21 47 -6l47 -71q19 -21 -6 -46l-278 -198q-24 -18 -46 6z" />
<glyph unicode="&#xb6;" horiz-adv-x="1107" d="M117 1010q0 85 35 164.5t90.5 135.5t126 90t139.5 34h2h127h248h78q12 0 20 -9.5t8 -21.5v-1610q0 -12 -8 -21.5t-20 -9.5h-99q-12 0 -21 9.5t-9 21.5v1501h-168v-1501q0 -12 -8.5 -21.5t-20.5 -9.5h-98q-12 0 -21.5 9.5t-9.5 21.5v791q-69 0 -139.5 34t-126 90 t-90.5 136t-35 166z" />
<glyph unicode="&#xb7;" horiz-adv-x="421" d="M117 700v125q0 31 33 31h122q33 0 33 -31v-125q0 -30 -33 -30h-122q-33 0 -33 30z" />
<glyph unicode="&#xb8;" horiz-adv-x="563" d="M119 -338q-6 15 6 21l61 36q12 6 21 -6q20 -24 53 -24q26 0 46 21.5t20 58.5q0 41 -28 54t-58 1q-10 -4 -20 -5t-14 0l-5 1l-62 12q-14 3 -10 21l68 163h122l-38 -94q66 5 117 -38.5t51 -116.5q0 -87 -49.5 -135t-139.5 -48q-50 0 -90 26t-51 52z" />
<glyph unicode="&#xb9;" horiz-adv-x="679" d="M82 748v86q0 8 6 14t14 6h166v614l-135 -102q-11 -7 -21 -2t-10 16v90q0 12 19 27l158 127q12 6 20 6h94q7 0 13 -6t6 -14v-756h168q7 0 12.5 -6t5.5 -14v-86q0 -8 -5.5 -13.5t-12.5 -5.5h-293h-185q-8 0 -14 6t-6 13z" />
<glyph unicode="&#xba;" horiz-adv-x="843" d="M82 1051q0 183 96.5 283t243.5 100t243.5 -100t96.5 -283q0 -184 -96.5 -284.5t-243.5 -100.5t-243.5 100.5t-96.5 284.5zM233 1051q0 -116 47 -188t142 -72t141.5 72t46.5 188q0 115 -46.5 186.5t-141.5 71.5t-142 -71.5t-47 -186.5zM244 213v90q0 12 9 21.5t21 9.5h299 q12 0 21.5 -9.5t9.5 -21.5v-90q0 -12 -9.5 -21.5t-21.5 -9.5h-299q-12 0 -21 9.5t-9 21.5z" />
<glyph unicode="&#xbb;" horiz-adv-x="997" d="M98 -5q-6 11 4 28l248 411l-248 410q-10 17 -4 28t25 11h49q34 0 49 -21l271 -370q28 -36 28 -52v-10v-4q0 -15 -28 -51l-271 -371q-14 -20 -49 -20h-49q-19 0 -25 11zM448.5 -5q-5.5 11 4.5 28l247 411l-247 410q-10 17 -4.5 28t24.5 11h49q34 0 49 -21l271 -370 q28 -36 28 -52v-10v-4q0 -15 -28 -51l-271 -371q-14 -20 -49 -20h-49q-19 0 -24.5 11z" />
<glyph unicode="&#xbc;" horiz-adv-x="1789" d="M82 551v86q0 7 6 13.5t14 6.5h166v613l-135 -101q-11 -7 -21 -1.5t-10 16.5v90q0 11 19 26l158 127q14 7 20 7h94q7 0 13 -6.5t6 -14.5v-756h168q7 0 12.5 -6t5.5 -14v-86q0 -8 -5.5 -13.5t-12.5 -5.5h-293h-185q-8 0 -14 6t-6 13zM510 45l694 1358q16 31 41 31h82 q15 0 22.5 -11t0.5 -26l-699 -1366q-15 -31 -43 -31h-67q-21 0 -30 14.5t-1 30.5zM1026 256v74q0 8 4 12l400 602q7 10 18 10h125q7 0 12.5 -5t5.5 -13v-580h95q8 0 14 -5.5t6 -12.5v-82q0 -7 -6 -12.5t-14 -5.5h-95v-164q0 -8 -5.5 -14.5t-12.5 -6.5h-107q-7 0 -12.5 6.5 t-5.5 14.5v164h-404q-8 0 -13 5t-5 13zM1171 356h277v406z" />
<glyph unicode="&#xbd;" horiz-adv-x="1794" d="M82 551v86q0 7 6 13.5t14 6.5h166v613l-135 -101q-11 -7 -21 -1.5t-10 16.5v90q0 11 19 26l158 127q14 7 20 7h94q7 0 13 -6.5t6 -14.5v-756h168q7 0 12.5 -6t5.5 -14v-86q0 -8 -5.5 -13.5t-12.5 -5.5h-293h-185q-8 0 -14 6t-6 13zM430 45l694 1358q8 17 16.5 24t24.5 7 h82q15 0 22.5 -11t0.5 -26l-699 -1366q-15 -31 -43 -31h-67q-21 0 -30 14.5t-1 30.5zM1104 733q7 44 25 83t52 74.5t92 56t134 20.5h2q139 0 209 -73t70 -185q0 -33 -7.5 -64t-18.5 -52t-22 -37.5t-18 -23.5l-8 -8l-316 -350h394q8 0 14 -5.5t6 -12.5v-88q0 -7 -6 -13 t-14 -6h-568q-7 0 -12.5 5.5t-5.5 13.5v73q0 16 12 25l340 379q84 94 84 162q0 66 -36 100.5t-99 34.5q-77 0 -115 -32.5t-47 -80.5q-6 -16 -18 -16h-105q-8 0 -13.5 6.5t-4.5 13.5z" />
<glyph unicode="&#xbe;" horiz-adv-x="1810" d="M82 748q0 22 22 22h105q18 0 18 -16q0 -47 44.5 -78t115.5 -31q84 0 125 38.5t41 100.5q0 148 -201 148h-33q-7 0 -12.5 5t-5.5 13v90q0 8 5.5 13.5t12.5 5.5h33q88 0 134 38.5t46 108.5q0 55 -39 87t-106 34q-72 -2 -117 -33t-45 -82q0 -14 -18 -14h-103q-22 0 -22 21 q0 96 78 163.5t227 67.5h2q66 0 116.5 -15t81.5 -38t50.5 -56t27 -65t7.5 -68q0 -149 -113 -209q22 -7 42.5 -20.5t43 -37.5t36 -64.5t13.5 -92.5q0 -40 -8.5 -76t-30.5 -72t-55.5 -62t-87.5 -42t-123 -16h-2q-147 0 -226 70t-79 162zM522 45l695 1358q15 31 40 31h82 q15 0 22.5 -11t0.5 -26l-696 -1366q-16 -31 -43 -31h-70q-21 0 -30 14.5t-1 30.5zM1047 256v74q0 8 4 12l399 602q7 10 18 10h125q8 0 13.5 -5.5t5.5 -12.5v-580h94q8 0 14 -5.5t6 -12.5v-82q0 -7 -6 -12.5t-14 -5.5h-94v-164q0 -8 -6 -14.5t-13 -6.5h-106q-7 0 -13 6.5 t-6 14.5v164h-403q-7 0 -12.5 5t-5.5 13zM1192 356h276v406z" />
<glyph unicode="&#xbf;" horiz-adv-x="1069" d="M152 -182q0 76 16 137.5t48.5 109.5t66 81t82.5 71q112 85 147 152.5t35 144.5q0 29 26 29h115q29 0 29 -29q0 -114 -33.5 -192.5t-142.5 -165.5q-71 -54 -116.5 -101t-65 -88t-25.5 -70t-6 -67q0 -139 61.5 -201.5t165.5 -62.5q57 0 103.5 18.5t74.5 48.5t44 59t24 58 q6 22 26 14l121 -28q22 -3 15 -31q-11 -42 -29 -80.5t-51.5 -77.5t-76.5 -67t-108 -46t-143 -18h-2q-86 0 -155.5 23.5t-114.5 62.5t-75 91.5t-43 108.5t-13 116zM539 719v133q0 31 32 31h119q33 0 33 -31v-133q0 -31 -33 -31h-119q-32 0 -32 31z" />
<glyph unicode="&#xc0;" d="M90 43l578 1389q9 18 26 18h37h17q18 0 24 -18l586 -1391q6 -15 -4 -28t-25 -13h-117q-19 0 -26 20l-117 281h-692l-117 -283q-7 -18 -27 -18h-116q-14 0 -24 13t-3 30zM438 453h568l-285 684zM522 1665l27 82q5 14 16.5 19.5t26.5 -1.5l305 -157q31 -16 21 -39l-13 -41 q-14 -28 -41 -19l-323 115q-30 13 -19 41z" />
<glyph unicode="&#xc1;" d="M90 43l578 1389q9 18 26 18h37h17q18 0 24 -18l586 -1391q6 -15 -4 -28t-25 -13h-117q-19 0 -26 20l-117 281h-692l-117 -283q-7 -18 -27 -18h-116q-14 0 -24 13t-3 30zM438 453h568l-285 684zM524 1567q-10 23 21 39l305 157q15 7 26.5 1.5t16.5 -19.5l27 -82 q11 -28 -19 -41l-323 -115q-27 -9 -41 19z" />
<glyph unicode="&#xc2;" d="M90 43l578 1389q9 18 26 18h37h17q18 0 24 -18l586 -1391q6 -15 -4 -28t-25 -13h-117q-19 0 -26 20l-117 281h-692l-117 -283q-7 -18 -27 -18h-116q-14 0 -24 13t-3 30zM438 453h568l-285 684zM479 1550v31q0 5 0.5 8.5t1.5 7t1.5 5.5t3.5 5.5t3.5 4l5 5l5.5 5.5l162 166 q24 24 51 24h8q27 0 51 -24l166 -166l4 -4l3.5 -3.5l3 -3t3 -3.5t2 -3t1.5 -3.5t1 -4t1 -5t0.5 -5.5t0.5 -6v-31q0 -38 -38 -14l-203 135l-199 -135q-39 -25 -39 14z" />
<glyph unicode="&#xc3;" d="M90 43l578 1389q9 18 26 18h37h17q18 0 24 -18l586 -1391q6 -15 -4 -28t-25 -13h-117q-19 0 -26 20l-117 281h-692l-117 -283q-7 -18 -27 -18h-116q-14 0 -24 13t-3 30zM428 1597q49 134 170 134h2q53 0 92.5 -10.5t59 -23.5t45 -23.5t53.5 -10.5q64 0 113 51q13 13 28 4 l21 -10q15 -8 8 -25q-48 -131 -168 -133h-2q-47 0 -83.5 10.5t-55 23.5t-47.5 23.5t-64 10.5q-22 0 -56 -11.5t-59 -39.5q-13 -13 -28 -4l-21 10q-15 7 -8 24zM438 453h568l-285 684z" />
<glyph unicode="&#xc4;" d="M90 43l578 1389q9 18 26 18h37h17q18 0 24 -18l586 -1391q6 -15 -4 -28t-25 -13h-117q-19 0 -26 20l-117 281h-692l-117 -283q-7 -18 -27 -18h-116q-14 0 -24 13t-3 30zM438 453h568l-285 684zM512 1647q0 35 24 58.5t58 23.5t58 -23.5t24 -58.5q0 -34 -24 -57t-58 -23 t-58 23t-24 57zM770 1647q0 35 23 58.5t57 23.5q35 0 58.5 -23.5t23.5 -58.5q0 -34 -23.5 -57t-58.5 -23q-34 0 -57 23t-23 57z" />
<glyph unicode="&#xc5;" d="M90 43l578 1389q9 18 26 18h37h17q18 0 24 -18l586 -1391q6 -15 -4 -28t-25 -13h-117q-19 0 -26 20l-117 281h-692l-117 -283q-7 -18 -27 -18h-116q-14 0 -24 13t-3 30zM438 453h568l-285 684zM516 1714q0 96 59.5 153.5t147.5 57.5q89 0 150 -57.5t61 -153.5t-61 -153.5 t-150 -57.5q-88 0 -147.5 57.5t-59.5 153.5zM635 1714q0 -43 22.5 -74.5t65.5 -31.5q44 0 67 31.5t23 74.5q0 41 -23 73t-67 32q-43 0 -65.5 -32t-22.5 -73z" />
<glyph unicode="&#xc6;" horiz-adv-x="2004" d="M75.5 12q-9.5 12 0.5 31l950 1372q13 19 29 19h106h56h681q12 0 20.5 -9.5t8.5 -21.5v-90q0 -12 -8.5 -21.5t-20.5 -9.5h-653v-489h451q12 0 21 -8.5t9 -20.5v-94q0 -12 -9 -20.5t-21 -8.5h-451v-489h656q12 0 21 -9.5t9 -21.5v-90q0 -12 -9 -21.5t-21 -9.5h-730h-75 q-12 0 -21.5 9.5t-9.5 21.5v270h-621l-196 -283q-14 -18 -27 -18h-119q-17 0 -26.5 12zM551 453h514v739z" />
<glyph unicode="&#xc7;" horiz-adv-x="1466" d="M88 717q0 197 97.5 365.5t266.5 268t369 99.5q159 0 302 -65.5t237 -186.5q8 -13 6.5 -23.5t-8.5 -15.5l-74 -74q-7 -9 -21.5 -8.5t-21.5 10.5q-62 86 -176.5 148.5t-243.5 62.5q-149 0 -276.5 -78.5t-202 -212.5t-74.5 -290q0 -151 75 -285.5t203.5 -215.5t274.5 -81 q133 0 249 64.5t183 162.5q9 11 22.5 12t22.5 -7l70 -68q10 -8 10.5 -21t-6.5 -20q-96 -123 -228 -194t-284 -78l-20 -56q68 8 121 -35.5t53 -119.5q0 -87 -49.5 -135t-139.5 -48q-50 0 -90 26t-51 52q-6 15 6 21l55 33q8 4 19 -9q24 -24 61 -24q34 0 55 23.5t21 62.5 q0 41 -35.5 56t-60.5 -3q-7 -5 -15.5 -7t-13.5 -1h-4l-57 18q-14 3 -10 21l51 125q-185 17 -338.5 119.5t-241.5 264t-88 347.5z" />
<glyph unicode="&#xc8;" horiz-adv-x="1087" d="M150 31v1372q0 12 9 21.5t21 9.5h121h680q12 0 20.5 -9.5t8.5 -21.5v-90q0 -12 -8.5 -21.5t-20.5 -9.5h-651v-489h448q12 0 21.5 -8.5t9.5 -20.5v-94q0 -12 -9.5 -20.5t-21.5 -8.5h-448v-489h653q12 0 21.5 -9.5t9.5 -21.5v-90q0 -12 -9.5 -21.5t-21.5 -9.5h-729h-74 q-12 0 -21 9.5t-9 21.5zM381 1665l27 82q5 14 16.5 19.5t26.5 -1.5l305 -157q31 -15 20 -39l-12 -41q-14 -28 -41 -19l-324 115q-29 13 -18 41z" />
<glyph unicode="&#xc9;" horiz-adv-x="1087" d="M150 31v1372q0 12 9 21.5t21 9.5h121h680q12 0 20.5 -9.5t8.5 -21.5v-90q0 -12 -8.5 -21.5t-20.5 -9.5h-651v-489h448q12 0 21.5 -8.5t9.5 -20.5v-94q0 -12 -9.5 -20.5t-21.5 -8.5h-448v-489h653q12 0 21.5 -9.5t9.5 -21.5v-90q0 -12 -9.5 -21.5t-21.5 -9.5h-729h-74 q-12 0 -21 9.5t-9 21.5zM383 1567q-11 24 20 39l306 157q15 7 26.5 1.5t16.5 -19.5l26 -82q11 -28 -18 -41l-324 -115q-27 -9 -41 19z" />
<glyph unicode="&#xca;" horiz-adv-x="1087" d="M150 31v1372q0 12 9 21.5t21 9.5h121h680q12 0 20.5 -9.5t8.5 -21.5v-90q0 -12 -8.5 -21.5t-20.5 -9.5h-651v-489h448q12 0 21.5 -8.5t9.5 -20.5v-94q0 -12 -9.5 -20.5t-21.5 -8.5h-448v-489h653q12 0 21.5 -9.5t9.5 -21.5v-90q0 -12 -9.5 -21.5t-21.5 -9.5h-729h-74 q-12 0 -21 9.5t-9 21.5zM338 1550v31q0 11 2.5 18.5t5 10l12.5 12.5l162 166q24 24 51 24h9q27 0 51 -24l166 -166l4 -4l3.5 -3.5l3 -3t3 -3.5t2 -3t1.5 -3.5t1 -4t1 -5t0.5 -5.5t0.5 -6v-31q0 -39 -39 -14l-203 135l-198 -135q-39 -25 -39 14z" />
<glyph unicode="&#xcb;" horiz-adv-x="1087" d="M150 31v1372q0 12 9 21.5t21 9.5h121h680q12 0 20.5 -9.5t8.5 -21.5v-90q0 -12 -8.5 -21.5t-20.5 -9.5h-651v-489h448q12 0 21.5 -8.5t9.5 -20.5v-94q0 -12 -9.5 -20.5t-21.5 -8.5h-448v-489h653q12 0 21.5 -9.5t9.5 -21.5v-90q0 -12 -9.5 -21.5t-21.5 -9.5h-729h-74 q-12 0 -21 9.5t-9 21.5zM373 1647q0 35 24 58.5t58 23.5t58 -23.5t24 -58.5q0 -34 -24 -57t-58 -23t-58 23t-24 57zM631 1647q0 35 23 58.5t57 23.5q35 0 58.5 -23.5t23.5 -58.5q0 -34 -23.5 -57t-58.5 -23q-34 0 -57 23t-23 57z" />
<glyph unicode="&#xcc;" horiz-adv-x="501" d="M43 1665l27 82q5 14 16.5 19.5t26.5 -1.5l305 -157q31 -15 20 -39l-12 -41q-14 -28 -41 -19l-324 115q-29 13 -18 41zM152 31v1372q0 12 9 21.5t21 9.5h121q12 0 20.5 -9.5t8.5 -21.5v-1372q0 -12 -8.5 -21.5t-20.5 -9.5h-121q-12 0 -21 9.5t-9 21.5z" />
<glyph unicode="&#xcd;" horiz-adv-x="501" d="M43 1567q-11 24 20 39l306 157q15 7 26.5 1.5t16.5 -19.5l26 -82q11 -28 -18 -41l-324 -115q-27 -9 -41 19zM152 31v1372q0 12 9 21.5t21 9.5h121q12 0 20.5 -9.5t8.5 -21.5v-1372q0 -12 -8.5 -21.5t-20.5 -9.5h-121q-12 0 -21 9.5t-9 21.5z" />
<glyph unicode="&#xce;" horiz-adv-x="501" d="M-2 1550v31q0 11 2.5 18.5t5 10l12.5 12.5l162 166q24 24 51 24h9q27 0 51 -24l166 -166l4 -4l3.5 -3.5l3 -3t3 -3.5t2 -3t1.5 -3.5t1 -4t1 -5t0.5 -5.5t0.5 -6v-31q0 -39 -39 -14l-202 135l-199 -135q-39 -25 -39 14zM152 31v1372q0 12 9 21.5t21 9.5h121 q12 0 20.5 -9.5t8.5 -21.5v-1372q0 -12 -8.5 -21.5t-20.5 -9.5h-121q-12 0 -21 9.5t-9 21.5z" />
<glyph unicode="&#xcf;" horiz-adv-x="501" d="M33 1647q0 35 24 58.5t58 23.5t58 -23.5t24 -58.5q0 -34 -24 -57t-58 -23t-58 23t-24 57zM152 31v1372q0 12 9 21.5t21 9.5h121q12 0 20.5 -9.5t8.5 -21.5v-1372q0 -12 -8.5 -21.5t-20.5 -9.5h-121q-12 0 -21 9.5t-9 21.5zM291 1647q0 35 23 58.5t57 23.5 q35 0 58.5 -23.5t23.5 -58.5q0 -34 -23.5 -57t-58.5 -23q-34 0 -57 23t-23 57z" />
<glyph unicode="&#xd0;" horiz-adv-x="1486" d="M68 674v82q0 30 32 30h121v617q0 12 9.5 21.5t21.5 9.5h121h354q129 -4 242 -55t196.5 -141.5t132 -225.5t48.5 -297q0 -160 -49 -294.5t-134 -225t-199.5 -142t-244.5 -53.5h-412h-55q-12 0 -21.5 9.5t-9.5 21.5v612h-121q-32 0 -32 31zM401 152h308q91 0 173 38 t145.5 108t100.5 178t37 239q0 132 -37 240.5t-100 179t-145.5 109t-173.5 38.5h-308v-496h318q33 0 33 -30v-82q0 -31 -33 -31h-318v-491z" />
<glyph unicode="&#xd1;" horiz-adv-x="1386" d="M150 29v1374q0 12 9 21.5t21 9.5h72h20q13 0 28 -9t22 -22l735 -1077v1077q0 12 8 21.5t20 9.5h121q12 0 21.5 -9.5t9.5 -21.5v-1374q0 -12 -9.5 -20.5t-21.5 -8.5h-71h-19q-32 0 -51 29l-735 1071v-1071q0 -12 -8.5 -20.5t-20.5 -8.5h-121q-12 0 -21 8.5t-9 20.5z M397 1597q49 134 170 134h2q53 0 92.5 -10.5t59 -23.5t45 -23.5t53.5 -10.5q64 0 113 51q13 13 29 4l20 -10q15 -8 8 -25q-48 -131 -168 -133h-2q-47 0 -83.5 10.5t-55 23.5t-47.5 23.5t-64 10.5q-22 0 -55.5 -11.5t-58.5 -39.5q-13 -13 -29 -4l-20 10q-16 8 -9 24z" />
<glyph unicode="&#xd2;" horiz-adv-x="1638" d="M88 715q0 200 98 369t266.5 267.5t368.5 98.5q198 0 366.5 -98.5t266.5 -267.5t98 -369q0 -148 -58 -283.5t-156 -233.5t-233.5 -156t-283.5 -58q-200 0 -368.5 98t-266.5 266.5t-98 366.5zM268 715q0 -118 44 -226t118.5 -185.5t176.5 -123t214 -45.5q110 0 211.5 46 t176 123t119 185t44.5 226q0 158 -75.5 292.5t-202.5 212.5t-273 78q-149 0 -276.5 -78t-202 -212.5t-74.5 -292.5zM621 1665l26 82q5 14 16.5 19.5t26.5 -1.5l305 -157q31 -16 21 -39l-12 -41q-14 -28 -41 -19l-324 115q-29 13 -18 41z" />
<glyph unicode="&#xd3;" horiz-adv-x="1638" d="M88 715q0 200 98 369t266.5 267.5t368.5 98.5q198 0 366.5 -98.5t266.5 -267.5t98 -369q0 -148 -58 -283.5t-156 -233.5t-233.5 -156t-283.5 -58q-200 0 -368.5 98t-266.5 266.5t-98 366.5zM268 715q0 -118 44 -226t118.5 -185.5t176.5 -123t214 -45.5q110 0 211.5 46 t176 123t119 185t44.5 226q0 158 -75.5 292.5t-202.5 212.5t-273 78q-149 0 -276.5 -78t-202 -212.5t-74.5 -292.5zM623 1567q-11 24 20 39l305 157q15 7 26.5 1.5t16.5 -19.5l27 -82q11 -28 -19 -41l-323 -115q-27 -9 -41 19z" />
<glyph unicode="&#xd4;" horiz-adv-x="1638" d="M88 715q0 200 98 369t266.5 267.5t368.5 98.5q198 0 366.5 -98.5t266.5 -267.5t98 -369q0 -148 -58 -283.5t-156 -233.5t-233.5 -156t-283.5 -58q-200 0 -368.5 98t-266.5 266.5t-98 366.5zM268 715q0 -118 44 -226t118.5 -185.5t176.5 -123t214 -45.5q110 0 211.5 46 t176 123t119 185t44.5 226q0 158 -75.5 292.5t-202.5 212.5t-273 78q-149 0 -276.5 -78t-202 -212.5t-74.5 -292.5zM578 1550v31q0 11 2.5 18.5t5 10l12.5 12.5l162 166q24 24 51 24h8q27 0 51 -24l166 -166l4.5 -4.5t4 -3.5t3.5 -3.5t2.5 -4t2 -3.5t2 -4t1.5 -5t1 -6v-7 v-31q0 -39 -39 -14l-203 135l-199 -135q-38 -24 -38 14z" />
<glyph unicode="&#xd5;" horiz-adv-x="1638" d="M88 715q0 200 98 369t266.5 267.5t368.5 98.5q198 0 366.5 -98.5t266.5 -267.5t98 -369q0 -148 -58 -283.5t-156 -233.5t-233.5 -156t-283.5 -58q-200 0 -368.5 98t-266.5 266.5t-98 366.5zM268 715q0 -118 44 -226t118.5 -185.5t176.5 -123t214 -45.5q110 0 211.5 46 t176 123t119 185t44.5 226q0 158 -75.5 292.5t-202.5 212.5t-273 78q-149 0 -276.5 -78t-202 -212.5t-74.5 -292.5zM526 1597q49 134 170 134h2q53 0 92.5 -10.5t59 -23.5t45 -23.5t53.5 -10.5q64 0 113 51q13 13 29 4l20 -10q15 -8 8 -25q-48 -131 -168 -133h-2 q-47 0 -83.5 10.5t-55 23.5t-47.5 23.5t-64 10.5q-22 0 -55.5 -11.5t-58.5 -39.5q-13 -13 -29 -4l-20 10q-15 8 -9 24z" />
<glyph unicode="&#xd6;" horiz-adv-x="1638" d="M88 715q0 200 98 369t266.5 267.5t368.5 98.5q198 0 366.5 -98.5t266.5 -267.5t98 -369q0 -148 -58 -283.5t-156 -233.5t-233.5 -156t-283.5 -58q-200 0 -368.5 98t-266.5 266.5t-98 366.5zM268 715q0 -118 44 -226t118.5 -185.5t176.5 -123t214 -45.5q110 0 211.5 46 t176 123t119 185t44.5 226q0 158 -75.5 292.5t-202.5 212.5t-273 78q-149 0 -276.5 -78t-202 -212.5t-74.5 -292.5zM610 1647q0 35 24 58.5t58 23.5t58 -23.5t24 -58.5q0 -34 -24 -57t-58 -23t-58 23t-24 57zM868 1647q0 35 23 58.5t57 23.5q35 0 58.5 -23.5t23.5 -58.5 q0 -34 -23.5 -57t-58.5 -23q-34 0 -57 23t-23 57z" />
<glyph unicode="&#xd7;" horiz-adv-x="901" d="M127 387q-20 20 2 45l217 217l-217 217q-23 24 -2 45l59 60q22 25 45 2l220 -219l219 217q24 23 45 2l59 -62q20 -20 -2 -45l-217 -217l217 -217q24 -24 2 -45l-59 -59q-22 -25 -45 -2l-219 219l-220 -217q-23 -24 -45 -2z" />
<glyph unicode="&#xd8;" horiz-adv-x="1673" d="M88 715q0 200 98 369t266.5 267.5t368.5 98.5q145 0 275 -53l10 22q16 31 41 31h86q15 0 22 -11t0 -26l-41 -80q155 -100 246.5 -263.5t91.5 -354.5q0 -148 -58 -283.5t-156 -233.5t-233.5 -156t-283.5 -58q-142 0 -272 51l-10 -21q-15 -30 -43 -30h-72q-21 0 -30 14.5 t-1 30.5l35 67q-156 98 -248 262.5t-92 356.5zM268 715q0 -145 63.5 -269t172.5 -204l520 1013q-100 43 -203 43q-149 0 -276.5 -78t-202 -212.5t-74.5 -292.5zM621 174q95 -39 200 -39q110 0 211.5 46t176 123t119 185t44.5 226q0 143 -63 267t-170 206z" />
<glyph unicode="&#xd9;" horiz-adv-x="1353" d="M145 592v809q0 13 9.5 23t21.5 10h121q12 0 20.5 -9.5t8.5 -23.5v-770q0 -261 81.5 -378.5t268.5 -117.5q186 0 268 118t82 378v770q0 13 9.5 23t21.5 10h121q12 0 20 -9.5t8 -23.5v-809q-1 -142 -27.5 -249t-86.5 -190t-164.5 -126t-251.5 -43q-146 0 -250.5 43 t-165 126t-88 190.5t-27.5 248.5zM475 1665l27 82q5 14 16.5 19.5t26.5 -1.5l305 -157q31 -15 20 -39l-12 -41q-14 -28 -41 -19l-323 115q-30 13 -19 41z" />
<glyph unicode="&#xda;" horiz-adv-x="1353" d="M145 592v809q0 13 9.5 23t21.5 10h121q12 0 20.5 -9.5t8.5 -23.5v-770q0 -261 81.5 -378.5t268.5 -117.5q186 0 268 118t82 378v770q0 13 9.5 23t21.5 10h121q12 0 20 -9.5t8 -23.5v-809q-1 -142 -27.5 -249t-86.5 -190t-164.5 -126t-251.5 -43q-146 0 -250.5 43 t-165 126t-88 190.5t-27.5 248.5zM477 1567q-10 23 21 39l305 157q15 7 26.5 1.5t16.5 -19.5l26 -82q11 -28 -18 -41l-324 -115q-27 -9 -41 19z" />
<glyph unicode="&#xdb;" horiz-adv-x="1353" d="M145 592v809q0 13 9.5 23t21.5 10h121q12 0 20.5 -9.5t8.5 -23.5v-770q0 -261 81.5 -378.5t268.5 -117.5q186 0 268 118t82 378v770q0 13 9.5 23t21.5 10h121q12 0 20 -9.5t8 -23.5v-809q-1 -142 -27.5 -249t-86.5 -190t-164.5 -126t-251.5 -43q-146 0 -250.5 43 t-165 126t-88 190.5t-27.5 248.5zM432 1550v31q0 5 0.5 8.5t1.5 7t1.5 5.5t3.5 5.5t3.5 4l5 5l5.5 5.5l161 166q24 24 52 24h8q27 0 51 -24l166 -166l4 -4l3.5 -3.5l3 -3t3 -3.5t2 -3t1.5 -3.5t1 -4t1 -5t0.5 -5.5t0.5 -6v-31q0 -39 -39 -14l-202 135l-199 -135 q-39 -25 -39 14z" />
<glyph unicode="&#xdc;" horiz-adv-x="1353" d="M145 592v809q0 13 9.5 23t21.5 10h121q12 0 20.5 -9.5t8.5 -23.5v-770q0 -261 81.5 -378.5t268.5 -117.5q186 0 268 118t82 378v770q0 13 9.5 23t21.5 10h121q12 0 20 -9.5t8 -23.5v-809q-1 -142 -27.5 -249t-86.5 -190t-164.5 -126t-251.5 -43q-146 0 -250.5 43 t-165 126t-88 190.5t-27.5 248.5zM465 1647q0 35 24 58.5t58 23.5t58 -23.5t24 -58.5q0 -34 -24 -57t-58 -23t-58 23t-24 57zM723 1647q0 35 23 58.5t57 23.5q35 0 58.5 -23.5t23.5 -58.5q0 -34 -23.5 -57t-58.5 -23q-34 0 -57 23t-23 57z" />
<glyph unicode="&#xdd;" horiz-adv-x="1308" d="M75.5 1420q10.5 14 26.5 14h109q28 0 51 -31l393 -633l394 633q23 31 49 31h110q16 0 26.5 -15t0.5 -33l-490 -774v-583q0 -12 -9 -20.5t-21 -8.5h-119q-12 0 -21.5 8.5t-9.5 20.5v581l-489 779q-11 17 -0.5 31zM457 1567q-11 24 20 39l305 157q15 7 26.5 1.5t16.5 -19.5 l27 -82q11 -28 -18 -41l-324 -115q-27 -9 -41 19z" />
<glyph unicode="&#xde;" horiz-adv-x="1316" d="M145 29v1374q0 12 9 21.5t22 9.5l121 2q12 0 20.5 -9.5t8.5 -21.5v-221h454q77 -1 147.5 -33t124 -88.5t85.5 -141t32 -184.5t-34 -184t-90 -139.5t-128 -86.5t-149 -32h-442v-264q0 -12 -8.5 -20.5t-20.5 -8.5l-121 -2q-13 0 -22 8.5t-9 20.5zM326 446h430 q75 0 129.5 44.5t79 109t24.5 137.5q0 56 -11 104.5t-36.5 93.5t-74 71t-115.5 26h-426v-586z" />
<glyph unicode="&#xdf;" horiz-adv-x="956" d="M117 31v1048v2q1 73 14 131t32 96t50.5 65.5t60 42t69.5 22.5t71 10t71 2q115 0 191.5 -20t116.5 -60.5t55.5 -89t15.5 -117.5q0 -57 -25 -106.5t-60.5 -85.5t-71 -69.5t-60.5 -71.5t-24 -78q0 -45 26 -83.5t62.5 -72t73.5 -73.5t63 -106t26 -151q0 -282 -294 -282 q-107 0 -191 53q-28 17 -14 41l35 69q6 11 17 14t22 -3q58 -37 126 -37q130 0 130 145q0 51 -14 94.5t-37 74t-50.5 58.5t-55 55t-50 55.5t-36 68t-13.5 86.5q0 55 25 104t60.5 84t71.5 67t61 67.5t25 70.5q0 94 -41 127t-166 33q-102 0 -149 -57.5t-47 -182.5v-1040 q0 -31 -31 -31h-111q-13 0 -21.5 8.5t-8.5 22.5z" />
<glyph unicode="&#xe0;" horiz-adv-x="1017" d="M76 432q0 95 26.5 176.5t76 143t127 96.5t173.5 35q142 0 238 -103l41 54q24 32 49 32h65q12 0 20.5 -9.5t8.5 -22.5v-803q0 -12 -9 -21.5t-20 -9.5h-53q-40 0 -57 39l-29 59q-96 -114 -254 -114q-189 0 -296 126t-107 322zM242 432q0 -138 68 -224.5t175 -86.5 q141 0 195.5 76.5t54.5 232.5q0 74 -10.5 126.5t-36.5 97t-76 67t-125 22.5q-117 0 -181 -82.5t-64 -228.5zM315 1186l47 71q24 28 48 7l249 -238q25 -25 11 -43l-25 -35q-21 -24 -45 -6l-278 199q-25 25 -7 45z" />
<glyph unicode="&#xe1;" horiz-adv-x="1017" d="M76 432q0 95 26.5 176.5t76 143t127 96.5t173.5 35q142 0 238 -103l41 54q24 32 49 32h65q12 0 20.5 -9.5t8.5 -22.5v-803q0 -12 -9 -21.5t-20 -9.5h-53q-40 0 -57 39l-29 59q-96 -114 -254 -114q-189 0 -296 126t-107 322zM242 432q0 -138 68 -224.5t175 -86.5 q141 0 195.5 76.5t54.5 232.5q0 74 -10.5 126.5t-36.5 97t-76 67t-125 22.5q-117 0 -181 -82.5t-64 -228.5zM313 983q-14 18 11 43l249 238q24 21 48 -7l47 -71q18 -21 -6 -45l-279 -199q-24 -18 -45 6z" />
<glyph unicode="&#xe2;" horiz-adv-x="1017" d="M76 432q0 95 26.5 176.5t76 143t127 96.5t173.5 35q142 0 238 -103l41 54q24 32 49 32h65q12 0 20.5 -9.5t8.5 -22.5v-803q0 -12 -9 -21.5t-20 -9.5h-53q-40 0 -57 39l-29 59q-96 -114 -254 -114q-189 0 -296 126t-107 322zM242 432q0 -138 68 -224.5t175 -86.5 q141 0 195.5 76.5t54.5 232.5q0 74 -10.5 126.5t-36.5 97t-76 67t-125 22.5q-117 0 -181 -82.5t-64 -228.5zM248 983v31q0 11 2.5 18.5t5 10l12.5 12.5l162 166q24 24 51 24h8q28 0 52 -24l166 -166l4 -4l3.5 -3.5l3 -3t3 -3.5t2 -3t1.5 -3.5t1 -4t1 -5t0.5 -5.5t0.5 -6v-31 q0 -39 -39 -14l-203 135l-198 -135q-39 -25 -39 14z" />
<glyph unicode="&#xe3;" horiz-adv-x="1017" d="M76 432q0 95 26.5 176.5t76 143t127 96.5t173.5 35q142 0 238 -103l41 54q24 32 49 32h65q12 0 20.5 -9.5t8.5 -22.5v-803q0 -12 -9 -21.5t-20 -9.5h-53q-40 0 -57 39l-29 59q-96 -114 -254 -114q-189 0 -296 126t-107 322zM199 1030q48 133 170 133h2q53 0 92.5 -10.5 t59 -23t45 -23t53.5 -10.5q63 0 112 51q13 13 29 4l20 -10q16 -8 9 -25q-48 -131 -168 -133h-2q-47 0 -83.5 10.5t-55 23.5t-47.5 23.5t-64 10.5q-22 0 -56 -12t-59 -40q-13 -13 -29 -4l-20 11q-15 7 -8 24zM242 432q0 -138 68 -224.5t175 -86.5q141 0 195.5 76.5 t54.5 232.5q0 74 -10.5 126.5t-36.5 97t-76 67t-125 22.5q-117 0 -181 -82.5t-64 -228.5z" />
<glyph unicode="&#xe4;" horiz-adv-x="1017" d="M76 432q0 95 26.5 176.5t76 143t127 96.5t173.5 35q142 0 238 -103l41 54q24 32 49 32h65q12 0 20.5 -9.5t8.5 -22.5v-803q0 -12 -9 -21.5t-20 -9.5h-53q-40 0 -57 39l-29 59q-96 -114 -254 -114q-189 0 -296 126t-107 322zM242 432q0 -138 68 -224.5t175 -86.5 q141 0 195.5 76.5t54.5 232.5q0 74 -10.5 126.5t-36.5 97t-76 67t-125 22.5q-117 0 -181 -82.5t-64 -228.5zM283 1079q0 35 24 58.5t58 23.5t57.5 -23.5t23.5 -58.5q0 -34 -23.5 -57t-57.5 -23t-58 23t-24 57zM541 1079q0 35 23 58.5t57 23.5q35 0 58 -23.5t23 -58.5 q0 -34 -23 -57t-58 -23q-34 0 -57 23t-23 57z" />
<glyph unicode="&#xe5;" horiz-adv-x="1017" d="M76 432q0 95 26.5 176.5t76 143t127 96.5t173.5 35q142 0 238 -103l41 54q24 32 49 32h65q12 0 20.5 -9.5t8.5 -22.5v-803q0 -12 -9 -21.5t-20 -9.5h-53q-40 0 -57 39l-29 59q-96 -114 -254 -114q-189 0 -296 126t-107 322zM242 432q0 -138 68 -224.5t175 -86.5 q141 0 195.5 76.5t54.5 232.5q0 74 -10.5 126.5t-36.5 97t-76 67t-125 22.5q-117 0 -181 -82.5t-64 -228.5zM285 1147q0 96 59.5 153.5t147.5 57.5q89 0 149.5 -57.5t60.5 -153.5t-60.5 -153.5t-149.5 -57.5q-88 0 -147.5 57.5t-59.5 153.5zM403 1147q0 -42 23 -74.5 t66 -32.5q44 0 67 32t23 75q0 41 -23 72.5t-67 31.5q-43 0 -66 -31.5t-23 -72.5z" />
<glyph unicode="&#xe6;" horiz-adv-x="1507" d="M78 293q0 116 95 202.5t247 86.5q119 0 209 -54v23q0 197 -205 197q-33 0 -70 -7.5t-58 -14.5t-54 -20.5t-37 -15.5q-11 -4 -20.5 -0.5t-12.5 12.5l-27 84q-7 16 11 27q122 70 280 70q237 0 316 -135q113 135 297 135q175 0 275.5 -116.5t100.5 -352.5q0 -13 -9.5 -22 t-20.5 -9h-576q13 -122 82.5 -193t165.5 -71q69 0 125.5 29t91.5 77q17 22 43 0l59 -53q9 -7 10 -19.5t-7 -19.5q-123 -149 -324 -149q-100 0 -184 41.5t-140 115.5q-50 -75 -138 -116t-187 -41q-155 0 -246.5 90.5t-91.5 218.5zM246 293q0 -90 55.5 -135t130.5 -45 q46 0 81.5 12t57 30t35 43t18.5 48t5 47q0 86 -41.5 126t-155.5 40q-73 0 -129.5 -45.5t-56.5 -120.5zM819 508h434q-9 125 -64.5 182.5t-141.5 57.5q-100 0 -158 -61.5t-70 -178.5z" />
<glyph unicode="&#xe7;" horiz-adv-x="974" d="M78 430q0 187 136.5 320t322.5 133q104 0 195.5 -40.5t152.5 -113.5q14 -20 -2 -39l-64 -65q-9 -9 -21.5 -8.5t-19.5 10.5q-88 116 -237 116q-123 0 -209 -89.5t-86 -223.5q0 -127 86.5 -218t208.5 -91q49 0 92.5 13.5t73.5 35.5t48.5 39.5t30.5 34.5q5 9 17.5 11 t25.5 -7l58 -58q18 -18 4 -38q-53 -73 -133.5 -116t-179.5 -50l-21 -56q68 8 121 -35.5t53 -119.5q0 -88 -49.5 -135.5t-138.5 -47.5q-50 0 -90.5 26t-51.5 52q-6 15 7 21l55 33q8 4 18 -9q24 -24 62 -24q34 0 54.5 23.5t20.5 62.5q0 41 -35.5 56t-60.5 -3q-7 -5 -15.5 -7 t-12.5 -1h-5l-57 18q-14 3 -10 21l53 127q-166 24 -281.5 149.5t-115.5 292.5z" />
<glyph unicode="&#xe8;" horiz-adv-x="1007" d="M76 434q0 129 61.5 233t161 160t215.5 56q203 0 307.5 -127t104.5 -342q0 -13 -10 -22t-21 -9h-135h-512q19 -121 100 -192.5t178 -71.5q135 0 248 96q23 23 43 -6l45 -55q17 -24 0 -43q-43 -48 -141.5 -87.5t-208.5 -39.5q-118 0 -217.5 56.5t-159 160.5t-59.5 233z M248 508h506q-12 106 -78 173t-170 67q-95 0 -168 -64t-90 -176zM336 1186l47 71q24 27 47 7l250 -238q24 -24 10 -43l-24 -35q-21 -24 -45 -6l-279 199q-24 24 -6 45z" />
<glyph unicode="&#xe9;" horiz-adv-x="1007" d="M76 434q0 129 61.5 233t161 160t215.5 56q203 0 307.5 -127t104.5 -342q0 -13 -10 -22t-21 -9h-135h-512q19 -121 100 -192.5t178 -71.5q135 0 248 96q23 23 43 -6l45 -55q17 -24 0 -43q-43 -48 -141.5 -87.5t-208.5 -39.5q-118 0 -217.5 56.5t-159 160.5t-59.5 233z M248 508h506q-12 106 -78 173t-170 67q-95 0 -168 -64t-90 -176zM334 983q-14 19 10 43l250 238q23 20 47 -7l47 -71q18 -21 -6 -45l-279 -199q-24 -18 -45 6z" />
<glyph unicode="&#xea;" horiz-adv-x="1007" d="M76 434q0 129 61.5 233t161 160t215.5 56q203 0 307.5 -127t104.5 -342q0 -13 -10 -22t-21 -9h-135h-512q19 -121 100 -192.5t178 -71.5q135 0 248 96q23 23 43 -6l45 -55q17 -24 0 -43q-43 -48 -141.5 -87.5t-208.5 -39.5q-118 0 -217.5 56.5t-159 160.5t-59.5 233z M248 508h506q-12 106 -78 173t-170 67q-95 0 -168 -64t-90 -176zM266 983v31q0 5 0.5 8.5t1.5 7t1.5 5.5t3.5 5.5t3.5 4l5 5l5.5 5.5l162 166q24 24 51 24h8q27 0 51 -24l166 -166l4 -4l3.5 -3.5l3 -3t3 -3.5t2 -3t1.5 -3.5t1 -4t1 -5t0.5 -5.5t0.5 -6v-31q0 -38 -38 -14 l-203 135l-199 -135q-39 -25 -39 14z" />
<glyph unicode="&#xeb;" horiz-adv-x="1007" d="M76 434q0 129 61.5 233t161 160t215.5 56q203 0 307.5 -127t104.5 -342q0 -13 -10 -22t-21 -9h-135h-512q19 -121 100 -192.5t178 -71.5q135 0 248 96q23 23 43 -6l45 -55q17 -24 0 -43q-43 -48 -141.5 -87.5t-208.5 -39.5q-118 0 -217.5 56.5t-159 160.5t-59.5 233z M248 508h506q-12 106 -78 173t-170 67q-95 0 -168 -64t-90 -176zM301 1079q0 35 24 58.5t58 23.5t58 -23.5t24 -58.5q0 -34 -24 -57t-58 -23t-58 23t-24 57zM559 1079q0 35 23 58.5t57 23.5q35 0 58.5 -23.5t23.5 -58.5q0 -34 -23.5 -57t-58.5 -23q-34 0 -57 23t-23 57z" />
<glyph unicode="&#xec;" horiz-adv-x="440" d="M43 1411l47 72q23 27 47 6l250 -238q24 -24 10 -43l-24 -34q-22 -24 -45 -7l-279 199q-24 24 -6 45zM133 29v802q0 15 9.5 25t21.5 10h110q13 0 22 -10t9 -25v-802q0 -12 -9 -20.5t-22 -8.5h-110q-12 0 -21.5 8.5t-9.5 20.5z" />
<glyph unicode="&#xed;" horiz-adv-x="440" d="M41 1208q-14 19 10 43l250 238q24 21 47 -6l47 -72q18 -21 -6 -45l-278 -199q-23 -17 -45 7zM133 29v802q0 15 9.5 25t21.5 10h110q13 0 22 -10t9 -25v-802q0 -12 -9 -20.5t-22 -8.5h-110q-12 0 -21.5 8.5t-9.5 20.5z" />
<glyph unicode="&#xee;" horiz-adv-x="440" d="M-25 1208v31q0 5 0.5 8.5t1.5 7t1.5 5.5t3.5 5.5t3.5 4l5 5l5.5 5.5l162 166q24 24 51 24h8q27 0 51 -24l166 -166l4.5 -4.5t4 -3.5t3.5 -3.5t2.5 -4t2 -3.5t2 -4t1.5 -5t1 -6v-7v-31q0 -39 -39 -14l-203 135l-199 -135q-39 -25 -39 14zM133 29v802q0 15 9.5 25t21.5 10 h110q13 0 22 -10t9 -25v-802q0 -12 -9 -20.5t-22 -8.5h-110q-12 0 -21.5 8.5t-9.5 20.5z" />
<glyph unicode="&#xef;" horiz-adv-x="440" d="M10 1305q0 35 24 58t58 23t58 -23t24 -58q0 -34 -24 -57t-58 -23t-58 23t-24 57zM133 29v802q0 15 9.5 25t21.5 10h110q13 0 22 -10t9 -25v-802q0 -12 -9 -20.5t-22 -8.5h-110q-12 0 -21.5 8.5t-9.5 20.5zM268 1305q0 35 23 58t57 23q35 0 58.5 -23t23.5 -58 q0 -34 -23.5 -57t-58.5 -23q-34 0 -57 23t-23 57z" />
<glyph unicode="&#xf0;" horiz-adv-x="1085" d="M78 430q0 189 129.5 321t322.5 132q136 0 248 -72q-39 178 -221 342l-82 -100q-18 -22 -43 -4l-47 38q-9 8 -9.5 20t9.5 23l78 97q-59 44 -154 94q-29 16 -16 39l35 70q10 20 24.5 20.5t30.5 -10.5q91 -46 174 -99l74 93q18 24 45 4l45 -37q25 -19 4 -43l-72 -86 q250 -202 308 -512q41 -221 16 -389q-22 -166 -146.5 -276.5t-300.5 -110.5q-193 0 -322.5 130t-129.5 316zM248 430q-2 -131 79.5 -220t202.5 -89q120 0 201.5 89t81.5 220q0 133 -81.5 223t-201.5 90q-122 0 -202.5 -90t-79.5 -223z" />
<glyph unicode="&#xf1;" horiz-adv-x="1056" d="M117 31v800q0 13 7 24t21 11h88q10 0 20.5 -9.5t14.5 -25.5l21 -65q50 56 124.5 86.5t161.5 30.5q365 0 365 -385v-467q0 -14 -11 -22.5t-22 -8.5h-108q-31 0 -31 31v454q0 132 -50.5 195t-182.5 63q-119 0 -182.5 -55.5t-63.5 -130.5v-526q0 -31 -31 -31h-113 q-28 0 -28 31zM233 1030q48 133 170 133h3q53 0 92.5 -10.5t58.5 -23t44.5 -23t53.5 -10.5q64 0 113 51q13 13 29 4l20 -10q15 -7 8 -25q-48 -131 -168 -133h-2q-47 0 -83 10.5t-54.5 23.5t-47.5 23.5t-64 10.5q-22 0 -56 -12t-59 -40q-13 -13 -29 -4l-20 11q-16 8 -9 24z " />
<glyph unicode="&#xf2;" horiz-adv-x="1058" d="M78 430q0 189 129.5 321t322.5 132q192 0 321.5 -132t129.5 -321q0 -186 -129.5 -316t-321.5 -130q-193 0 -322.5 130t-129.5 316zM248 430q-2 -131 79.5 -220t202.5 -89q120 0 201.5 89t81.5 220q0 133 -81.5 223t-201.5 90q-122 0 -202.5 -90t-79.5 -223zM354 1186 l47 71q24 28 48 7l249 -238q25 -25 11 -43l-25 -35q-21 -24 -45 -6l-279 199q-24 24 -6 45z" />
<glyph unicode="&#xf3;" horiz-adv-x="1058" d="M78 430q0 189 129.5 321t322.5 132q192 0 321.5 -132t129.5 -321q0 -186 -129.5 -316t-321.5 -130q-193 0 -322.5 130t-129.5 316zM248 430q-2 -131 79.5 -220t202.5 -89q120 0 201.5 89t81.5 220q0 133 -81.5 223t-201.5 90q-122 0 -202.5 -90t-79.5 -223zM352 983 q-14 19 10 43l250 238q23 20 47 -7l48 -71q18 -20 -7 -45l-278 -199q-24 -18 -45 6z" />
<glyph unicode="&#xf4;" horiz-adv-x="1058" d="M78 430q0 189 129.5 321t322.5 132q192 0 321.5 -132t129.5 -321q0 -186 -129.5 -316t-321.5 -130q-193 0 -322.5 130t-129.5 316zM248 430q-2 -131 79.5 -220t202.5 -89q120 0 201.5 89t81.5 220q0 133 -81.5 223t-201.5 90q-122 0 -202.5 -90t-79.5 -223zM287 983v31 q0 11 2.5 18.5t5 10l12.5 12.5l162 166q24 24 51 24h8q28 0 52 -24l165 -166l4.5 -4.5t4 -3.5t3.5 -3.5t2.5 -4t2 -3.5t2 -4t1.5 -5t1 -6v-7v-31q0 -39 -39 -14l-203 135l-198 -135q-39 -25 -39 14z" />
<glyph unicode="&#xf5;" horiz-adv-x="1058" d="M78 430q0 189 129.5 321t322.5 132q192 0 321.5 -132t129.5 -321q0 -186 -129.5 -316t-321.5 -130q-193 0 -322.5 130t-129.5 316zM236 1030q48 133 170 133h2q53 0 92.5 -10.5t58.5 -23t44.5 -23t53.5 -10.5q64 0 113 51q13 13 29 4l20 -10q15 -7 8 -25 q-48 -131 -168 -133h-2q-47 0 -83 10.5t-54.5 23.5t-47.5 23.5t-64 10.5q-22 0 -56 -12t-59 -40q-13 -13 -29 -4l-20 11q-15 7 -8 24zM248 430q-2 -131 79.5 -220t202.5 -89q120 0 201.5 89t81.5 220q0 133 -81.5 223t-201.5 90q-122 0 -202.5 -90t-79.5 -223z" />
<glyph unicode="&#xf6;" horiz-adv-x="1058" d="M78 430q0 189 129.5 321t322.5 132q192 0 321.5 -132t129.5 -321q0 -186 -129.5 -316t-321.5 -130q-193 0 -322.5 130t-129.5 316zM248 430q-2 -131 79.5 -220t202.5 -89q120 0 201.5 89t81.5 220q0 133 -81.5 223t-201.5 90q-122 0 -202.5 -90t-79.5 -223zM319 1079 q0 35 24 58.5t58 23.5t58 -23.5t24 -58.5q0 -34 -24 -57t-58 -23t-58 23t-24 57zM578 1079q0 35 22.5 58.5t56.5 23.5q35 0 58.5 -23.5t23.5 -58.5q0 -34 -23.5 -57t-58.5 -23q-34 0 -56.5 23t-22.5 57z" />
<glyph unicode="&#xf7;" horiz-adv-x="1048" d="M117 676v76q0 30 33 30h749q33 0 33 -30v-76q0 -31 -33 -31h-749q-33 0 -33 31zM440 383q0 46 33 80.5t80 34.5t81 -34.5t34 -80.5t-34 -79.5t-81 -33.5t-80 33.5t-33 79.5zM440 1006q0 46 33 79t80 33t81 -33t34 -79q0 -47 -34 -81t-81 -34t-80 34t-33 81z" />
<glyph unicode="&#xf8;" horiz-adv-x="1058" d="M78 430q0 189 129.5 321t322.5 132q73 0 156 -27q12 27 39 27h55q15 0 22.5 -11t0.5 -26l-19 -39q92 -62 144.5 -161t52.5 -216q0 -186 -129.5 -316t-321.5 -130q-87 0 -155 26q-14 -26 -41 -26h-41q-21 0 -30 14.5t-1 30.5l14 28q-92 61 -145 159t-53 214zM248 430 q-1 -71 25 -133t73 -104l275 536q-41 14 -91 14q-122 0 -202.5 -90t-79.5 -223zM440 135q51 -14 90 -14q120 0 201.5 89t81.5 220q0 150 -98 242z" />
<glyph unicode="&#xf9;" horiz-adv-x="1050" d="M117 346v485q0 15 8 25t20 10h113q12 0 21.5 -10t9.5 -25v-471q0 -104 60.5 -171.5t180.5 -67.5q60 0 106.5 18t73 46.5t40 59.5t14.5 62v524q0 35 31 35h110q12 0 21.5 -10t9.5 -25v-802q0 -12 -9.5 -20.5t-21.5 -8.5h-51q-28 0 -45 29l-47 73q-92 -118 -281 -118 q-174 0 -269 102.5t-95 259.5zM350 1186l47 71q24 27 47 7l250 -238q25 -25 11 -43l-25 -35q-21 -24 -45 -6l-279 199q-24 24 -6 45z" />
<glyph unicode="&#xfa;" horiz-adv-x="1050" d="M117 346v485q0 15 8 25t20 10h113q12 0 21.5 -10t9.5 -25v-471q0 -104 60.5 -171.5t180.5 -67.5q60 0 106.5 18t73 46.5t40 59.5t14.5 62v524q0 35 31 35h110q12 0 21.5 -10t9.5 -25v-802q0 -12 -9.5 -20.5t-21.5 -8.5h-51q-28 0 -45 29l-47 73q-92 -118 -281 -118 q-174 0 -269 102.5t-95 259.5zM348 983q-14 19 10 43l250 238q23 20 47 -7l47 -71q18 -21 -6 -45l-278 -199q-24 -18 -45 6z" />
<glyph unicode="&#xfb;" horiz-adv-x="1050" d="M117 346v485q0 15 8 25t20 10h113q12 0 21.5 -10t9.5 -25v-471q0 -104 60.5 -171.5t180.5 -67.5q60 0 106.5 18t73 46.5t40 59.5t14.5 62v524q0 35 31 35h110q12 0 21.5 -10t9.5 -25v-802q0 -12 -9.5 -20.5t-21.5 -8.5h-51q-28 0 -45 29l-47 73q-92 -118 -281 -118 q-174 0 -269 102.5t-95 259.5zM283 983v31q0 11 2.5 18.5t5 10l12.5 12.5l162 166q24 24 51 24h8q27 0 51 -24l166 -166l4.5 -4.5t4 -3.5t3.5 -3.5t2.5 -4t2 -3.5t2 -4t1.5 -5t1 -6v-7v-31q0 -39 -39 -14l-203 135l-198 -135q-39 -25 -39 14z" />
<glyph unicode="&#xfc;" horiz-adv-x="1050" d="M117 346v485q0 15 8 25t20 10h113q12 0 21.5 -10t9.5 -25v-471q0 -104 60.5 -171.5t180.5 -67.5q60 0 106.5 18t73 46.5t40 59.5t14.5 62v524q0 35 31 35h110q12 0 21.5 -10t9.5 -25v-802q0 -12 -9.5 -20.5t-21.5 -8.5h-51q-28 0 -45 29l-47 73q-92 -118 -281 -118 q-174 0 -269 102.5t-95 259.5zM317 1079q0 35 24 58.5t58 23.5t58 -23.5t24 -58.5q0 -34 -24 -57t-58 -23t-58 23t-24 57zM575 1079q0 35 23 58.5t57 23.5q35 0 58.5 -23.5t23.5 -58.5q0 -34 -23.5 -57t-58.5 -23q-34 0 -57 23t-23 57z" />
<glyph unicode="&#xfd;" horiz-adv-x="1034" d="M57 823q-7 13 1 28t26 15h111q22 0 34 -30l273 -615l317 627q7 18 29 18h100q15 0 25.5 -13t3.5 -30l-698 -1380q-8 -16 -27 -16h-102q-15 0 -25 13t-2 30l293 579zM336 983q-14 19 10 43l250 238q23 20 47 -7l47 -71q18 -21 -6 -45l-278 -199q-24 -18 -46 6z" />
<glyph unicode="&#xfe;" horiz-adv-x="1009" d="M117 -330v1522q0 15 8 25t20 10h115q29 0 29 -35v-420q103 111 260 111q126 0 217.5 -63t135.5 -164.5t44 -227.5q0 -194 -105.5 -319t-291.5 -125q-154 0 -260 114v-428q0 -12 -9.5 -21t-21.5 -9h-113q-12 0 -20 9t-8 21zM287 432q0 -75 10.5 -128.5t37 -96.5 t75.5 -64.5t122 -21.5q121 0 183.5 78.5t62.5 228.5q0 147 -62 231t-186 84q-137 0 -190 -77t-53 -234z" />
<glyph unicode="&#xff;" horiz-adv-x="1034" d="M57 823q-7 13 1 28t26 15h111q22 0 34 -30l273 -615l317 627q7 18 29 18h100q15 0 25.5 -13t3.5 -30l-698 -1380q-8 -16 -27 -16h-102q-15 0 -25 13t-2 30l293 579zM303 1079q0 35 24 58.5t58 23.5t58 -23.5t24 -58.5q0 -34 -24 -57t-58 -23t-58 23t-24 57zM561 1079 q0 35 23 58.5t57 23.5q35 0 58.5 -23.5t23.5 -58.5q0 -34 -23.5 -57t-58.5 -23q-34 0 -57 23t-23 57z" />
<glyph unicode="&#x152;" horiz-adv-x="1945" d="M104 717q0 138 44 258t117.5 205.5t168.5 147.5t198 92t204 30q87 0 184 -23q7 7 18 7h121h682q12 0 20.5 -9.5t8.5 -21.5v-90q0 -12 -8.5 -21.5t-20.5 -9.5h-653v-489h450q12 0 21.5 -8.5t9.5 -20.5v-94q0 -12 -9.5 -20.5t-21.5 -8.5h-450v-489h655q12 0 21.5 -9.5 t9.5 -21.5v-90q0 -12 -9.5 -21.5t-21.5 -9.5h-729h-76q-9 0 -18 6q-94 -22 -180 -22h-2q-102 0 -205 30t-198.5 92t-169 147.5t-117.5 205.5t-44 258zM285 719q0 -130 44 -240.5t119 -185.5t176 -116.5t214 -41.5q88 0 170 27v1110q-83 26 -172 26q-113 -1 -214 -43.5 t-175.5 -117t-118 -183t-43.5 -235.5z" />
<glyph unicode="&#x153;" horiz-adv-x="1591" d="M78 430q0 127 47.5 229t142 163t221.5 61q211 0 326 -164q53 78 135.5 121t182.5 43q173 0 274.5 -116.5t101.5 -352.5q0 -13 -9.5 -22t-20.5 -9h-576q13 -122 82.5 -193t165.5 -71q69 0 125.5 29t91.5 77q18 23 41 0l59 -53q9 -8 10.5 -19.5t-5.5 -19.5 q-123 -149 -324 -149q-102 0 -188 44t-144 122q-53 -78 -137 -122t-191 -44q-127 0 -221.5 60t-142 160.5t-47.5 225.5zM246 432q0 -151 63.5 -231t179.5 -80t179 80t63 231q0 150 -63 230.5t-179 80.5q-118 0 -180.5 -80t-62.5 -231zM903 508h434q-8 125 -64.5 182.5 t-142.5 57.5q-99 0 -157 -61.5t-70 -178.5z" />
<glyph unicode="&#x178;" horiz-adv-x="1308" d="M75.5 1420q10.5 14 26.5 14h109q28 0 51 -31l393 -633l394 633q23 31 49 31h110q16 0 26.5 -15t0.5 -33l-490 -774v-583q0 -12 -9 -20.5t-21 -8.5h-119q-12 0 -21.5 8.5t-9.5 20.5v581l-489 779q-11 17 -0.5 31zM444 1647q0 35 24 58.5t58 23.5t58 -23.5t24 -58.5 q0 -34 -24 -57t-58 -23t-58 23t-24 57zM702 1647q0 35 23 58.5t57 23.5q35 0 58.5 -23.5t23.5 -58.5q0 -34 -23.5 -57t-58.5 -23q-34 0 -57 23t-23 57z" />
<glyph unicode="&#x2c6;" horiz-adv-x="712" d="M117 1356v30q0 11 2.5 18.5t5 10l12.5 12.5l162 166q25 25 51 25h8q27 0 52 -25l165 -166l4.5 -4.5t4 -3.5t3.5 -3.5t2.5 -4t2 -3.5t2 -4t1.5 -5t1 -6v-7v-30q0 -40 -39 -15l-203 136l-198 -136q-39 -25 -39 15z" />
<glyph unicode="&#x2dc;" horiz-adv-x="829" d="M119 1403q48 133 170 133h2q53 0 92.5 -10.5t59 -23t45.5 -23t55 -11.5q18 0 50.5 12t59.5 40q13 13 29 4l20 -11q16 -8 9 -24q-48 -133 -168 -133h-2q-60 0 -100.5 16.5t-74 33t-75.5 17.5q-22 0 -56 -11.5t-59 -39.5q-13 -13 -29 -4l-20 10q-15 8 -8 25z" />
<glyph unicode="&#x2000;" horiz-adv-x="962" />
<glyph unicode="&#x2001;" horiz-adv-x="1925" />
<glyph unicode="&#x2002;" horiz-adv-x="962" />
<glyph unicode="&#x2003;" horiz-adv-x="1925" />
<glyph unicode="&#x2004;" horiz-adv-x="641" />
<glyph unicode="&#x2005;" horiz-adv-x="481" />
<glyph unicode="&#x2006;" horiz-adv-x="320" />
<glyph unicode="&#x2007;" horiz-adv-x="320" />
<glyph unicode="&#x2008;" horiz-adv-x="240" />
<glyph unicode="&#x2009;" horiz-adv-x="385" />
<glyph unicode="&#x200a;" horiz-adv-x="106" />
<glyph unicode="&#x2010;" horiz-adv-x="782" d="M117 524v78q0 31 33 31h485q33 0 33 -31v-78q0 -30 -33 -30h-485q-33 0 -33 30z" />
<glyph unicode="&#x2011;" horiz-adv-x="782" d="M117 524v78q0 31 33 31h485q33 0 33 -31v-78q0 -30 -33 -30h-485q-33 0 -33 30z" />
<glyph unicode="&#x2012;" horiz-adv-x="782" d="M117 524v78q0 31 33 31h485q33 0 33 -31v-78q0 -30 -33 -30h-485q-33 0 -33 30z" />
<glyph unicode="&#x2013;" horiz-adv-x="1048" d="M117 524v78q0 31 33 31h749q33 0 33 -31v-78q0 -30 -33 -30h-749q-33 0 -33 30z" />
<glyph unicode="&#x2014;" horiz-adv-x="1595" d="M117 524v78q0 31 33 31h1296q33 0 33 -31v-78q0 -30 -33 -30h-1296q-33 0 -33 30z" />
<glyph unicode="&#x2018;" horiz-adv-x="399" d="M78 1016v194q0 7 4 15l92 270h47q10 0 17.5 -9.5t3.5 -23.5l-54 -211l48 -14q51 -15 51 -57v-164q0 -33 -33 -33h-141q-35 0 -35 33z" />
<glyph unicode="&#x2019;" horiz-adv-x="399" d="M113 1298v166q0 31 34 31h142q33 0 33 -31v-194q0 -4 -1.5 -8t-1.5 -5l-92 -274h-49q-10 0 -17 9.5t-3 25.5l53 209l-45 14q-53 20 -53 57z" />
<glyph unicode="&#x201a;" horiz-adv-x="382" d="M113 53v164q0 31 34 31h142q33 0 33 -31v-194q0 -7 -3 -13l-92 -272h-49q-11 0 -17.5 8.5t-2.5 24.5l53 209l-45 14q-53 20 -53 59z" />
<glyph unicode="&#x201c;" horiz-adv-x="710" d="M78 1016v194q0 9 2 13l92 274h49q10 0 17.5 -9.5t3.5 -25.5l-54 -209l45 -14q54 -20 54 -57v-166q0 -31 -35 -31h-141q-33 0 -33 31zM389 1016v194q0 9 2 13l92 274h49q10 0 17.5 -9.5t3.5 -25.5l-53 -209l45 -14q53 -20 53 -57v-166q0 -31 -35 -31h-141q-33 0 -33 31z " />
<glyph unicode="&#x201d;" horiz-adv-x="710" d="M113 1298v166q0 31 34 31h142q33 0 33 -31v-194q0 -4 -1.5 -8t-1.5 -5l-92 -274h-49q-10 0 -17 9.5t-3 25.5l53 209l-45 14q-53 20 -53 57zM424 1298v166q0 31 33 31h141q33 0 33 -31v-194q0 -9 -2 -13l-92 -274h-48q-10 0 -17 9.5t-3 25.5l53 209l-47 14q-51 19 -51 57z " />
<glyph unicode="&#x201e;" horiz-adv-x="675" d="M113 51v166q0 31 34 31h142q33 0 33 -31v-194q0 -7 -3 -13l-92 -274h-49q-10 0 -17 9.5t-3 25.5l53 209l-45 14q-53 20 -53 57zM424 51v166q0 31 35 31h141q33 0 33 -31v-194q0 -9 -2 -13l-92 -274h-50q-10 0 -17 9.5t-3 25.5l53 209l-45 14q-53 20 -53 57z" />
<glyph unicode="&#x2022;" horiz-adv-x="460" d="M117 762q0 46 32.5 79t79.5 33t81 -33t34 -79q0 -47 -34 -81t-81 -34t-79.5 33.5t-32.5 81.5z" />
<glyph unicode="&#x2026;" horiz-adv-x="1429" d="M78 31v135q0 31 33 31h135q33 0 33 -31v-135q0 -31 -33 -31h-135q-33 0 -33 31zM596 31v135q0 31 33 31h133q33 0 33 -31v-135q0 -31 -33 -31h-133q-33 0 -33 31zM1114 31v135q0 31 33 31h133q33 0 33 -31v-135q0 -31 -33 -31h-133q-33 0 -33 31z" />
<glyph unicode="&#x202f;" horiz-adv-x="385" />
<glyph unicode="&#x2039;" horiz-adv-x="655" d="M117 426v10v4q0 16 28 52l269 370q15 21 49 21h51q19 0 24 -11t-6 -28l-245 -410l245 -411q11 -17 6 -28t-24 -11h-51q-35 0 -49 20l-269 371q-28 36 -28 51z" />
<glyph unicode="&#x203a;" horiz-adv-x="655" d="M118.5 -5q-5.5 11 4.5 28l248 411l-248 410q-10 17 -4.5 28t24.5 11h50q34 0 49 -21l268 -370q29 -33 29 -52v-10v-4q0 -18 -29 -51l-268 -371q-14 -20 -49 -20h-50q-19 0 -24.5 11z" />
<glyph unicode="&#x205f;" horiz-adv-x="481" />
<glyph unicode="&#x20ac;" horiz-adv-x="1275" d="M117 535v65q0 12 9 21.5t21 9.5h64q-2 29 -2 88q0 57 2 84h-64q-12 0 -21 9.5t-9 21.5v65q0 12 9 21.5t21 9.5h78q45 253 199 386.5t395 133.5q84 0 162.5 -19.5t126.5 -48.5q25 -17 8 -43l-57 -82q-18 -25 -43 -10q-84 51 -197 51q-171 0 -272.5 -98t-138.5 -270h360 q12 0 21.5 -9.5t9.5 -21.5v-65q0 -12 -9.5 -21.5t-21.5 -9.5h-377q-4 -54 -4 -84t4 -88h377q12 0 21.5 -9.5t9.5 -21.5v-65q0 -12 -9.5 -21.5t-21.5 -9.5h-358q36 -172 137 -270.5t272 -98.5q67 0 133.5 22t106.5 52q25 18 41 -6l53 -82q16 -22 -8 -43q-51 -41 -142.5 -67.5 t-183.5 -26.5q-240 0 -394 133.5t-198 386.5h-80q-12 0 -21 9.5t-9 21.5z" />
<glyph unicode="&#x2122;" horiz-adv-x="1300" d="M117 1354v67q0 13 12 13h186h60h162q10 0 10 -13v-67q0 -13 -10 -13h-150v-446q0 -12 -12 -12h-88q-13 0 -13 12v446h-145q-12 0 -12 13zM600 895v526q0 13 10 13h76h29q11 0 18 -13l154 -364l164 364q7 13 18 13h66h39q12 0 12 -13v-526q0 -12 -12 -12h-89q-14 0 -14 12 v340l-160 -350q-7 -13 -18 -13h-12h-4q-11 0 -17 13l-147 340v-330q0 -12 -15 -12h-86q-12 0 -12 12z" />
<glyph unicode="&#x25fc;" horiz-adv-x="870" d="M0 0v870h870v-870h-870z" />
<glyph unicode="&#xfb03;" horiz-adv-x="1511" d="M66 758v78q0 12 8 21t20 9h101v176q0 202 83 289.5t269 87.5q64 0 109.5 -13.5t99.5 -43.5q2 0 4 -2q10 -5 22 -17q48 60 121.5 83.5t175.5 23.5q146 0 246 -61q27 -16 14 -43l-47 -68q-16 -23 -39 -10q-30 19 -77 31t-86 12q-65 0 -105 -12.5t-62 -43t-30 -73t-8 -111.5 v-205h461q12 0 21 -9t9 -21v-78v-729q0 -12 -8.5 -20.5t-21.5 -8.5h-111q-12 0 -21.5 8.5t-9.5 20.5v698h-319v-696q0 -31 -31 -31h-111q-13 0 -21.5 8.5t-8.5 22.5v696h-54h-4h-288v-696q0 -31 -31 -31h-111q-13 0 -21.5 8.5t-8.5 22.5v696h-101q-12 0 -20 9.5t-8 21.5z M367 866h346v213v2v6q-2 80 -14 115.5t-44 52.5q-51 25 -102 25q-104 0 -145 -55t-41 -185v-174z" />
<glyph unicode="&#xfb04;" horiz-adv-x="1603" d="M66 758v78q0 12 8 21t20 9h101v176q0 202 83 289.5t269 87.5q64 0 109.5 -13.5t99.5 -43.5q2 0 4 -2q4 -2 24 -17q33 44 84 69t96 31.5t103 6.5q75 0 133 -20q29 -7 43 -9.5t28.5 -0.5t24.5 12q9 18 27 18h113q12 0 21 -10t9 -23v-1386q0 -13 -9 -22t-21 -9h-113 q-12 0 -20.5 9t-8.5 22v1159q-21 43 -100 86v2q-61 33 -121 33q-102 0 -144 -54.5t-42 -185.5v-205h186q12 0 21.5 -9t9.5 -21v-78q0 -12 -9.5 -21.5t-21.5 -9.5h-186v-696q0 -31 -31 -31h-111q-13 0 -21.5 8.5t-8.5 22.5v696h-51h-5h-292v-696q0 -31 -31 -31h-111 q-13 0 -21.5 8.5t-8.5 22.5v696h-101q-12 0 -20 9.5t-8 21.5zM367 866h348v211q-2 85 -12.5 121.5t-40.5 54.5q-62 27 -109 27q-104 0 -145 -55t-41 -185v-174z" />
</font>
</defs>
</svg>
